<?xml version="1.0" encoding="utf-8"?>
<!-- Generator: Adobe Illustrator 25.2.0, SVG Export Plug-In . SVG Version: 6.00 Build 0)  -->
<svg version="1.1" id="Layer_1" xmlns="http://www.w3.org/2000/svg" xmlns:xlink="http://www.w3.org/1999/xlink" x="0px" y="0px"
	 viewBox="0 0 113.31 59.15" style="enable-background:new 0 0 113.31 59.15;" xml:space="preserve">
<style type="text/css">
	.st0{opacity:0.4;fill:#1C75BC;enable-background:new    ;}
	.st1{fill:none;stroke:#FFC841;stroke-width:3.4367;stroke-linecap:round;stroke-linejoin:round;stroke-miterlimit:10;}
	.st2{fill:none;stroke:#231F20;stroke-width:3.4367;stroke-linecap:round;stroke-linejoin:round;stroke-miterlimit:10;}
</style>
<g>
	<path class="st0" d="M69.68,39.46c4.41,0.99,7.71,4.93,7.71,9.64c0,5.46-4.42,9.88-9.88,9.88H35.57c-5.46,0-9.88-3.88-9.88-9.34
		c0-4.67,3.24-8.58,7.59-9.61c-0.27-0.8-0.41-1.65-0.41-2.54c0-4.39,3.56-7.95,7.95-7.95c2.18,0,4.15,0.88,5.59,2.3l0,0
		c1.94-4.26,6.23-7.23,11.22-7.23c6.8,0,12.31,5.51,12.31,12.31C69.94,37.79,69.68,39.46,69.68,39.46L69.68,39.46z"/>
	<g>
		<path class="st1" d="M65.3,21.11c1.79-2.01,4.25-3.46,7.11-3.97c6.76-1.2,13.2,3.31,14.4,10.07c0.99,5.59-1.92,10.96-6.78,13.33"
			/>
		<line class="st1" x1="74.6" y1="8.57" x2="74.57" y2="3.75"/>
		<line class="st1" x1="94.95" y1="31.27" x2="99.78" y2="31.24"/>
		<line class="st1" x1="89.98" y1="14.72" x2="93.37" y2="11.29"/>
		<line class="st1" x1="58.01" y1="14.72" x2="54.62" y2="11.29"/>
		<line class="st1" x1="91.48" y1="48.73" x2="88.09" y2="45.3"/>
	</g>
	<path class="st2" d="M73.37,35.31c4.41,0.99,7.71,4.93,7.71,9.64c0,5.46-4.42,9.88-9.88,9.88H39.26c-5.46,0-9.88-3.88-9.88-9.34
		c0-4.67,3.24-8.58,7.59-9.61c-0.27-0.8-0.41-1.65-0.41-2.54c0-4.39,3.56-7.95,7.95-7.95c2.18,0,4.15,0.88,5.59,2.3l0,0
		c1.94-4.26,6.23-7.23,11.22-7.23c6.8,0,12.31,5.51,12.31,12.31C73.63,33.64,73.37,35.31,73.37,35.31L73.37,35.31z"/>
</g>
</svg>
