<?xml version="1.0" encoding="utf-8"?>
<!-- Generator: Adobe Illustrator 25.2.0, SVG Export Plug-In . SVG Version: 6.00 Build 0)  -->
<svg version="1.1" id="Layer_1" xmlns="http://www.w3.org/2000/svg" xmlns:xlink="http://www.w3.org/1999/xlink" x="0px" y="0px"
	 viewBox="0 0 113.31 67.15" style="enable-background:new 0 0 113.31 67.15;" xml:space="preserve">
<style type="text/css">
	.st0{opacity:0.4;fill:#1C75BC;enable-background:new    ;}
	.st1{fill:none;stroke:#FFC841;stroke-width:3.4367;stroke-linecap:round;stroke-linejoin:round;stroke-miterlimit:10;}
	.st2{fill:none;stroke:#231F20;stroke-width:2.8332;stroke-linecap:round;stroke-linejoin:round;stroke-miterlimit:10;}
</style>
<g>
	<path class="st0" d="M69.68,26.46c4.41,0.99,7.71,4.93,7.71,9.64c0,5.46-4.42,9.88-9.88,9.88H35.57c-5.46,0-9.88-3.88-9.88-9.34
		c0-4.67,3.24-8.58,7.59-9.61c-0.27-0.8-0.41-1.65-0.41-2.54c0-4.39,3.56-7.95,7.95-7.95c2.18,0,4.15,0.88,5.59,2.3l0,0
		c1.94-4.26,6.23-7.23,11.22-7.23c6.8,0,12.31,5.51,12.31,12.31C69.94,24.79,69.68,26.46,69.68,26.46L69.68,26.46z"/>
	<g>
		<path class="st1" d="M65.73,8.53c1.8-2.03,4.28-3.48,7.16-3.99c6.8-1.2,13.29,3.34,14.5,10.14c1,5.62-1.93,11.04-6.82,13.42"/>
		<path class="st0" d="M41.77,48.77c3.45,3.45,3.58,7.08,3.58,7.08c0,1.98-1.61,3.58-3.58,3.58s-3.58-1.61-3.58-3.58
			C38.19,55.85,38.33,52.22,41.77,48.77z"/>
		<path class="st0" d="M69.44,48.77c3.45,3.45,3.59,7.08,3.59,7.08c0,1.98-1.61,3.58-3.59,3.58c-1.98,0-3.58-1.61-3.58-3.58
			C65.86,55.85,66,52.22,69.44,48.77z"/>
		<path class="st0" d="M55.61,52.13c3.45,3.45,3.58,7.08,3.58,7.08c0,1.98-1.61,3.58-3.58,3.58s-3.58-1.61-3.58-3.58
			C52.02,59.21,52.16,55.58,55.61,52.13z"/>
	</g>
	<path class="st2" d="M73.85,22.82c4.44,1,7.76,4.96,7.76,9.71c0,5.49-4.45,9.95-9.95,9.95H39.51c-5.49,0-9.95-3.91-9.95-9.4
		c0-4.7,3.26-8.64,7.64-9.68c-0.27-0.8-0.42-1.66-0.42-2.55c0-4.42,3.58-8.01,8.01-8.01c2.19,0,4.18,0.88,5.63,2.31l0,0
		c1.95-4.29,6.27-7.28,11.3-7.28c6.85,0,12.4,5.55,12.4,12.4C74.12,21.14,73.85,22.83,73.85,22.82L73.85,22.82z"/>
</g>
</svg>
