<?xml version="1.0" encoding="utf-8"?>
<!-- Generator: Adobe Illustrator 24.0.3, SVG Export Plug-In . SVG Version: 6.00 Build 0)  -->
<svg version="1.1" id="Layer_1" xmlns="http://www.w3.org/2000/svg" xmlns:xlink="http://www.w3.org/1999/xlink" x="0px" y="0px"
	 viewBox="0 0 139 137.7" style="enable-background:new 0 0 139 137.7;" xml:space="preserve">
<style type="text/css">
	.st0{fill:#B3B3B3;}
	.st1{fill:#93CDE0;}
	.st2{opacity:0.32;fill:#FFFFFF;enable-background:new    ;}
	.st3{fill:#EDDFD8;}
	.st4{fill:#FEA621;}
	.st5{fill:none;stroke:#2E58A6;stroke-width:3;stroke-linecap:round;stroke-linejoin:round;stroke-miterlimit:10;}
	.st6{fill:#01A0C6;}
	.st7{opacity:0.19;fill:#EDDFD8;enable-background:new    ;}
	.st8{fill:#633F1E;}
	.st9{fill:none;stroke:#0C0601;stroke-width:0.4887;stroke-linecap:round;stroke-linejoin:round;stroke-miterlimit:10;}
	.st10{fill:none;stroke:#0C0601;stroke-width:0.4887;stroke-miterlimit:10;}
	.st11{fill:#F5F0EB;}
</style>
<g>
	<path class="st0" d="M68,138.5c-3.2,0-6.4-0.2-9.5-0.7c-4.3-0.6-8.5-1.6-12.6-3.1c-1-0.3-2-0.7-3.1-1.2c-0.7-0.3-1.6-0.6-2.5-1.1
		c-0.2-0.1-0.7-0.3-0.7-0.3c-0.6-0.3-1.2-0.6-1.8-0.9l-0.7-0.3c-0.7-0.4-1.4-0.7-2.1-1.1l-0.3-0.2c-0.7-0.4-1.5-0.9-2.2-1.3
		c-0.2-0.1-0.4-0.2-0.5-0.3l-0.2-0.1c-0.5-0.3-0.9-0.6-1.4-0.9c-0.3-0.2-0.6-0.4-1-0.7c-0.4-0.3-0.8-0.5-1.1-0.8
		c-1.2-0.9-2.2-1.7-3.1-2.4c-0.8-0.6-1.5-1.3-2.2-1.9c-3.8-3.4-7.2-7.3-10.2-11.5c-0.2-0.2-0.3-0.4-0.5-0.7
		c-1.6-2.3-3.1-4.8-4.4-7.4c-0.2-0.4-0.5-0.9-0.7-1.4c-0.5-1-1-2.2-1.5-3.4c-0.1-0.2-0.1-0.3-0.2-0.5l-0.1-0.2
		C5.3,95.8,5.2,95.4,5,95c-0.1-0.2-0.2-0.5-0.3-0.7C3.5,91,2.6,87.4,1.9,83.8c0-0.2-0.1-0.5-0.1-0.8l-0.1-0.3
		C1.3,80.4,1,78,0.8,75.6c-0.1-1.5-0.1-3-0.1-4.5c0-1.6,0-3,0.1-4.4c0.1-1.1,0.2-2.2,0.3-3.4c0.5-4.4,1.5-8.8,2.8-13
		c0.1-0.4,0.3-0.9,0.5-1.4c0.1-0.3,0.2-0.6,0.3-0.9c0.2-0.4,0.3-0.9,0.5-1.3c0-0.1,0.1-0.2,0.1-0.3c0.9-2.3,2-4.6,3.1-6.8
		c2.2-4.1,4.8-8.1,7.9-11.7c0.7-0.8,1.3-1.6,2-2.3c1.8-2,3.7-3.8,5.8-5.6c0.6-0.5,1.2-1,1.9-1.6c1.5-1.2,3.1-2.4,4.7-3.4
		c0.2-0.2,0.5-0.3,0.8-0.5c2.1-1.4,4.3-2.6,6.6-3.8c0.1-0.1,0.2-0.1,0.3-0.1c0,0,0.5-0.3,0.7-0.3c1.8-0.9,3.8-1.7,5.8-2.5
		c0,0,0.1,0,0.1,0c0.2-0.1,0.3-0.1,0.5-0.2c0,0,0.1,0,0.1,0c5.4-1.9,11-3.1,16.7-3.6c1.6-0.1,3.3-0.2,5.1-0.2c0.2,0,0.5,0,0.7,0
		c3.5,0,7,0.3,10.4,0.8c3.8-1.5,7.8-2.3,11.9-2.3c16.2,0,29.8,12.2,31.7,28.2l9.3-7.6c0.7-0.6,1.7-1,2.7-1c1.2,0,2.3,0.5,3.1,1.3
		l3.6,3.8c0.8,0.8,1.2,1.9,1.1,3c0,1.1-0.5,2.2-1.3,2.9c-0.8,0.7-1.8,1.1-2.9,1.1l0,0c-1.2,0-2.3-0.5-3.1-1.3l-0.9-0.9l-7.2,5.9
		c0.3,0.5,0.6,1.1,0.9,1.6c0,0,0,0,0,0c0.6,1.2,1.3,2.5,1.9,3.8c0,0,0,0,0,0c0.4,0.8,0.8,1.7,1.1,2.6c0,0.1,0.1,0.2,0.1,0.3
		c0,0,0,0.1,0,0.1c1.3,3.3,2.4,6.7,3.1,10.1c0.4,1.8,0.8,3.7,1,5.5c0.4,3,0.6,6.2,0.6,9.3c0,1.7-0.1,3.4-0.2,5.1
		c-0.1,0.8-0.1,1.6-0.2,2.4c-0.8,7.4-2.9,14.6-6.1,21.3c-0.2,0.4-0.4,0.9-0.6,1.3c-1.3,2.6-2.8,5.1-4.4,7.5c0,0.1-0.1,0.1-0.1,0.2
		l-0.4,0.6c-0.8,1.2-1.7,2.4-2.6,3.5c-1.8,2.2-3.7,4.4-5.8,6.4c-3,2.9-6.4,5.6-9.9,7.9c-2,1.4-4.2,2.6-6.5,3.8
		c-2.4,1.2-4.9,2.3-7.4,3.2c-4.2,1.5-8.6,2.6-13,3.3c-1.7,0.3-3.5,0.4-5.2,0.6c0,0,0,0,0,0C71.1,138.4,69.6,138.5,68,138.5z"/>
	<g>
		<path class="st1" d="M131.5,71.2c0,1.6-0.1,3.2-0.2,4.8c-0.1,0.8-0.1,1.5-0.2,2.3c-0.8,7.1-2.8,13.9-5.7,20.1
			c-0.2,0.4-0.4,0.8-0.6,1.2c-1.3,2.5-2.7,4.9-4.3,7.2l0,0c-0.1,0.2-0.3,0.4-0.4,0.6c-0.8,1.1-1.6,2.3-2.5,3.3
			c-1.7,2.1-3.5,4.1-5.5,6c-2.9,2.8-6,5.3-9.4,7.5c-2,1.3-4,2.5-6.1,3.6c-2.3,1.1-4.6,2.1-7,3c-3.9,1.4-8,2.5-12.3,3.1
			c-1.6,0.2-3.3,0.4-4.9,0.5h0c-1.4,0.1-2.9,0.1-4.4,0.1c-3.1,0-6.1-0.2-9-0.6c-4.1-0.6-8.1-1.6-11.9-2.9c-1-0.3-1.9-0.7-2.9-1.1
			c-5.3-2.1-10.2-4.9-14.6-8.4c-1.4-1-2.7-2.2-4-3.3c-3.6-3.2-6.8-6.9-9.6-10.9c-0.1-0.2-0.3-0.4-0.4-0.6c-1.5-2.2-2.9-4.6-4.2-7
			c-0.2-0.4-0.4-0.9-0.6-1.3c-0.5-1-1-2.1-1.4-3.2c-0.1-0.2-0.1-0.4-0.2-0.6c-0.1-0.4-0.3-0.7-0.4-1.1c-0.1-0.2-0.2-0.4-0.2-0.6
			c-1.2-3.2-2.1-6.5-2.7-9.9c-0.1-0.3-0.1-0.7-0.2-1c-0.4-2.2-0.7-4.4-0.8-6.7c-0.1-1.4-0.1-2.8-0.1-4.2c0-1.4,0-2.8,0.1-4.2
			c0.1-1.1,0.2-2.2,0.3-3.2c0.5-4.2,1.4-8.3,2.7-12.2c0.1-0.4,0.3-0.9,0.4-1.3c0.1-0.3,0.2-0.6,0.3-0.8c0.2-0.5,0.4-1,0.5-1.5v0
			c0.9-2.2,1.8-4.3,2.9-6.4c2.1-3.9,4.6-7.6,7.4-11c0.6-0.7,1.2-1.4,1.9-2.1c1.7-1.9,3.5-3.6,5.4-5.3c0.6-0.5,1.2-1,1.8-1.5
			c1.4-1.1,2.9-2.2,4.4-3.2c0.2-0.2,0.5-0.3,0.7-0.5c2-1.3,4.1-2.5,6.2-3.6c0.1-0.1,0.3-0.1,0.4-0.2c0.2-0.1,0.3-0.2,0.5-0.2
			c1.8-0.9,3.7-1.6,5.5-2.3c0.2-0.1,0.4-0.1,0.6-0.2C52,9.6,57.2,8.5,62.7,8c1.6-0.1,3.2-0.2,4.8-0.2c0.2,0,0.4,0,0.6,0
			c4.5,0,8.9,0.5,13.1,1.4c5.7,1.2,11.1,3.2,16.2,5.8c1.5,0.8,3,1.6,4.4,2.5c3.7,2.3,7.1,5,10.3,8c0.1,0.1,0.3,0.3,0.5,0.4
			c0.2,0.2,0.5,0.5,0.7,0.7c2.9,2.9,5.5,6.2,7.8,9.6c0.1,0.1,0.1,0.2,0.2,0.3c0.6,1,1.2,1.9,1.8,2.9c0.3,0.6,0.6,1.2,1,1.7
			c0,0,0,0,0,0c0.6,1.2,1.2,2.4,1.8,3.6c0,0,0,0,0,0c0.4,0.8,0.7,1.6,1,2.4c0,0.1,0.1,0.2,0.1,0.4c1.2,3.1,2.2,6.2,2.9,9.5
			c0.4,1.7,0.7,3.5,1,5.2C131.3,65.3,131.5,68.2,131.5,71.2z"/>
		<g>
			<path class="st2" d="M120.2,107.4c-0.8,1.1-1.6,2.3-2.5,3.3c-1.7,2.1-3.5,4.1-5.5,6c-2.9,2.8-6,5.3-9.4,7.5c-2,1.3-4,2.5-6.1,3.6
				c-2.3,1.1-4.6,2.1-7,3c-3.9,1.4-8,2.5-12.3,3.1l11.5-98v0l0.3-2.9l1.4-12.2l7.4-0.7l0.5,2.1l3.4,13.5L120.2,107.4z"/>
			<path class="st2" d="M130,57.2l-27.9-21.4l-10.2-7.9l3.2-6.7l3.6,1.1l14.6,4.4c2.9,2.9,5.5,6.2,7.8,9.6c0.1,0.1,0.1,0.2,0.2,0.3
				c0.6,1,1.2,1.9,1.8,2.9c0.3,0.6,0.6,1.2,1,1.7c0,0,0,0,0,0c0.6,1.2,1.2,2.4,1.8,3.6c0,0,0,0,0,0c0.4,0.8,0.7,1.6,1,2.4
				c0,0.1,0.1,0.2,0.1,0.4C128.3,50.8,129.3,53.9,130,57.2z"/>
			<path class="st2" d="M90.3,34l-1.4,2l-59.3,85.7c-1.4-1-2.7-2.2-4-3.3c-3.6-3.2-6.8-6.9-9.6-10.9c-0.1-0.2-0.3-0.4-0.4-0.6
				c-1.5-2.2-2.9-4.6-4.2-7c-0.2-0.4-0.4-0.9-0.6-1.3c-0.5-1-1-2.1-1.4-3.2c-0.1-0.2-0.1-0.4-0.2-0.6c-0.1-0.4-0.3-0.7-0.4-1.1
				c-0.1-0.2-0.2-0.4-0.2-0.6c-1.2-3.2-2.1-6.5-2.7-9.9l67.4-46.2l11.7-8l4,3.8l0.4,0.4L90.3,34z"/>
			<path class="st2" d="M89.3,28.3l-0.4,4.4l-0.3,3.1l-15.4,1.2l-61.1,4.6c2.1-3.9,4.6-7.6,7.4-11c0.6-0.7,1.2-1.4,1.9-2.1
				c1.7-1.9,3.5-3.6,5.4-5.3c0.6-0.5,1.2-1,1.8-1.5c1.4-1.1,2.9-2.2,4.4-3.2c0.2-0.2,0.5-0.3,0.7-0.5c2-1.3,4.1-2.5,6.2-3.6
				c0.1-0.1,0.3-0.1,0.4-0.2c0.2-0.1,0.3-0.2,0.5-0.2L89.3,28.3z"/>
		</g>
		<g>
			<path class="st3" d="M69.9,42.6H15.7c0.9-1.8,2.6-3.2,4.5-3.9c2.4-0.8,5.2-0.3,7.2,1.3c1.6-4,4.6-7.4,8.4-9.4
				c3.8-2,8.5-2.2,12.4-0.4c3.9,1.8,6.7,5.8,6.9,10.1c0.8-0.8,1.8-1.3,2.9-1.6c2.6-0.7,5.4-0.5,7.9,0.6
				C67.4,40.1,68.8,41.2,69.9,42.6z"/>
			<path class="st3" d="M120.1,100.5H53.3c1.1-2.2,3.2-4,5.5-4.8c3-1,6.4-0.3,8.8,1.6c1.9-4.9,5.6-9.1,10.3-11.5
				c4.7-2.4,10.5-2.7,15.3-0.5c4.8,2.3,8.3,7.2,8.5,12.5c1-0.9,2.3-1.6,3.6-1.9c3.2-0.9,6.7-0.6,9.7,0.8
				C117,97.5,118.7,98.9,120.1,100.5z"/>
			<path class="st3" d="M131.5,71.2c0,1.6-0.1,3.2-0.2,4.8h-27.1c0.9-1.8,2.6-3.2,4.5-3.9c0.8-0.3,1.6-0.4,2.4-0.4
				c1.7,0,3.4,0.6,4.8,1.7c1.6-4,4.6-7.4,8.4-9.4c2-1,4.3-1.6,6.6-1.6C131.3,65.3,131.5,68.2,131.5,71.2z"/>
		</g>
		<ellipse class="st4" cx="90.4" cy="34.4" rx="28.1" ry="28.1"/>
		<g>
			<g>
				<g>
					<path class="st5" d="M70.6,58.4c0,0,5.1-3.9,11.7-1.8"/>
					<path class="st5" d="M61.8,53.8c8.7-5.2,19.6-6.8,29.4-4.2"/>
					<polyline class="st5" points="104.1,50.8 134.1,26.2 137.7,30 					"/>
					<polyline class="st5" points="45.5,58.3 63.3,36.4 65.4,39.9 					"/>
				</g>
				<path class="st6" d="M65.8,73.4c-0.3,0.1-0.6,0.3-1,0.4c-2.5,0.8-4.9,1.1-7.2,1c-2.1-0.1-4-0.6-5.7-1.5
					c-2.4-1.2-4.3-3.1-5.7-5.6C45.1,65.5,44.3,63,44,60c0,0,2-5.1,10.7-7.2c2-0.5,4.4-0.8,7.2-0.9c0.6,0,1.2,0,1.8,0.1
					c1.9,0.2,3.5,0.7,4.8,1.5h0c2.4,1.5,3.8,3.8,4.3,6.5C73.7,65.1,71.1,71.2,65.8,73.4z"/>
				<path class="st7" d="M63.7,52c-4.6,6.7-8.4,13.8-11.7,21.3c-2.4-1.2-4.3-3.1-5.7-5.6c0.4-1,0.9-2,1.4-3c1.5-3,3.1-5.9,4.9-8.6
					c0.7-1,1.4-2.1,2.1-3.1c2-0.5,4.4-0.8,7.2-0.9C62.5,51.9,63.1,52,63.7,52z"/>
				<path class="st7" d="M72.8,60c-2.6,4.3-4.9,8.9-7,13.5c-0.3,0.1-0.6,0.3-1,0.4c-2.5,0.8-4.9,1.1-7.2,1c0.7-3.1,2-6,3.4-8.8
					c1.5-3,3.1-5.9,4.9-8.6c0.8-1.3,1.7-2.5,2.6-3.8h0C70.9,55,72.3,57.3,72.8,60z"/>
			</g>
		</g>
		<path class="st8" d="M54.7,70.9c-1.7,3.3-4.1,1.9-4.1,1.9s2.8,11.8,1.7,23.5c-0.9,9.8-4.1,29-5.1,34.7c-1-0.3-1.9-0.7-2.9-1.1
			c-6.9-2.8-13.2-6.8-18.6-11.7c-3.6-3.2-6.8-6.9-9.6-10.9c-0.1-0.6-0.2-1.2-0.3-1.8c-2.4-11.2-7.5-24.7-2.1-29.7
			c5.4-4.9,6-5.4,9.7-10.3c3.7-4.9,5.2-7.5,9.9-8.8c0,0,0.6-1.7,6.9-3.2c2.4-0.6,5.1-0.7,7.6-0.4c0.1,0,0.2,0,0.3,0
			c2.9,0.4,5.3,1.3,6.2,2.3c0.1,0.1,0.1,0.2,0.2,0.3c0.1,0.2,0.2,0.5,0.2,0.7c-0.2,2.6-9.9,3.7-9.9,3.7S56.3,67.8,54.7,70.9z"/>
		<g>
			<path class="st9" d="M33.2,56.7c0,0,2.9-0.3,6.5,1c3.6,1.3,5.4,2.7,7.5,4.2c2.1,1.5,8.8,6.9,8,8.6"/>
			<path class="st9" d="M19.7,73.6c0,0,3.4-2.5,5.3-4.2s6.7-4.1,9.2-3.4c2.5,0.8,14.7,8,17.9,7.1"/>
			<path class="st9" d="M37.7,67.5c0,0,8.3,6.8,10.8,10.1c2.5,3.3,3.7,5.6,1.3,8c-2.1,2.1-7.3-2-7.3-2"/>
			<path class="st9" d="M17.1,77c0,0,5.4-4.1,11.1-3.8c5.7,0.4,12.4,7.5,14.6,11.1c0.7,1.1,1.9,2.9,1,4.3c-1.3,2.2-2.9,1.6-4.6,0.7
				c-2.1-1.2-4.1-2.6-6-4c-1.9-1.4-4.1-2.5-6.2-3.6c-0.7-0.3-1.4-0.7-2.1-1"/>
			<g>
				<path class="st6" d="M54.3,55.8c-0.3,0.3-0.8,0.5-1.2,0.7c-0.5,0.1-1,0.2-1.4,0.2c-0.4,0-0.8,0-1.2-0.1
					c-0.4-0.1-0.9-0.1-1.3-0.3c-0.7-0.3-1.2-0.9-1.4-1.6c-0.1-0.5-0.2-1-0.1-1.5c0.1,0,0.2,0,0.3,0c-0.1,0.4-0.1,0.9,0,1.3
					c0.2,0.6,0.7,1.1,1.3,1.4c0.4,0.2,0.8,0.3,1.2,0.3c0.7,0.1,1.6,0.2,2.5-0.1c0.4-0.1,0.8-0.3,1.2-0.6
					C54.2,55.6,54.2,55.7,54.3,55.8z"/>
			</g>
			<path class="st10" d="M51,64.9c-0.5,0.6-1,1.2-1,1.9c0,0.3,0.1,0.6,0.2,0.9c0.5,1.2,1.5,2.1,2.7,2.7c0.5,0.2,1,0.3,1.5,0.1
				c0.5-0.2,0.8-0.8,1.3-1"/>
			<path class="st9" d="M48.5,77.8c-0.7,0.3-1.3,0.7-1.9,1.2c-0.6,0.5-1.3,1.2-1.2,2c0.1,0.4,0.3,0.8,0.6,1.1
				c0.6,0.8,1.4,1.7,2.3,2.1c1,0.4,2.3,0.1,2.8-0.8"/>
			<path class="st9" d="M39.2,84.6c-0.4,0.4-0.7,0.9-0.7,1.4c0,0.5,0.3,1,0.6,1.4c0.6,0.7,1.4,1.4,2.3,1.5c0.9,0.1,2-0.4,2.2-1.3
				c0.1-0.3,0.1-0.7,0-1c-0.2-1.1-0.8-2.1-1.6-2.8c-0.5-0.4-0.8-0.6-1.3-0.4C40.2,83.6,39.6,84.1,39.2,84.6z"/>
			<path class="st9" d="M26.9,81.7c-1,0.7-1.8,1.3-2.8,2"/>
			<path class="st9" d="M36.4,87.5c1.4,4.7,2,9.7,1.9,14.6"/>
		</g>
		<g>
			<polygon class="st11" points="70.8,115.8 75.3,118.3 70.3,119 67.8,123.1 67.2,118.2 63,115.7 68.4,115.5 70.5,110.9 			"/>
			<polygon class="st11" points="117.3,88.6 122.4,88.7 118.4,91.6 118.1,96.5 115.3,92.4 110.3,92.1 115,89.4 114.6,84.4 			"/>
			<polygon class="st11" points="68.8,14.8 73.5,16.8 68.7,18 66.6,22.4 65.5,17.6 61,15.5 66.4,14.7 67.9,9.9 			"/>
			<polygon class="st11" points="51.6,50.6 56.7,50.7 52.6,53.6 52.3,58.5 49.5,54.4 44.5,54.2 49.3,51.5 48.9,46.4 			"/>
			<polygon class="st11" points="19.3,56.9 23.9,58.9 19.1,60.1 17,64.5 16,59.7 11.4,57.6 16.8,56.8 18.3,52 			"/>
		</g>
	</g>
</g>
<path class="st6" d="M108.4,55.9c0,4.3-2.3,8.8-6.3,11c-0.6,0.3-1.2,0.6-1.8,0.8c-2.6,0.8-5.1,1.1-7.4,1c-1.8-0.1-3.5-0.5-5-1.2
	c-2.4-1.1-4.3-2.8-5.8-5.2c-0.7-1.2-1.4-2.6-1.8-4.1c-0.9-2.9,0.1-6.1,2.6-8c2.1-1.6,5.5-3.3,10.7-4c1.2-0.1,2.5-0.2,3.8-0.3
	c1.3,0,2.5,0.1,3.6,0.3c1.9,0.5,3.5,1.3,4.6,2.5C107.5,50.6,108.4,53.2,108.4,55.9z"/>
<path class="st7" d="M101,46.2c-1,1.5-2.1,2.9-2.5,3.4c-4.1,5.6-7.6,11.6-10.7,17.8c-2.4-1.1-4.3-2.8-5.8-5.2
	c1.1-2.1,2.3-4.2,3.6-6.2c2.2-3.4,4.8-6.9,7.9-9.9c1.2-0.1,2.5-0.2,3.8-0.3C98.7,45.8,99.9,45.9,101,46.2z"/>
<path class="st7" d="M108.4,55.9c-2.3,3.5-4.4,7.2-6.3,11c-0.6,0.3-1.2,0.6-1.8,0.8c-2.6,0.8-5.1,1.1-7.4,1c0.4-0.9,0.8-1.8,1.3-2.7
	c1.5-3,3.1-5.9,4.9-8.6c1.9-2.9,4.1-6,6.6-8.6C107.5,50.6,108.4,53.2,108.4,55.9z"/>
</svg>
