<?xml version="1.0" encoding="utf-8"?>
<!-- Generator: Adobe Illustrator 24.0.3, SVG Export Plug-In . SVG Version: 6.00 Build 0)  -->
<svg version="1.1" id="Layer_1" xmlns="http://www.w3.org/2000/svg" xmlns:xlink="http://www.w3.org/1999/xlink" x="0px" y="0px"
	 viewBox="0 0 138.98 137.66" style="enable-background:new 0 0 138.98 137.66;" xml:space="preserve">
<style type="text/css">
	.st0{fill:#C6C5C5;}
	.st1{fill:#EAF5F9;}
	.st2{fill:#E7F0C9;}
	.st3{fill:#FCCBAC;}
	.st4{fill:#6E3315;}
	.st5{fill:#EF4362;}
	.st6{fill:#53170B;}
	.st7{fill:#602113;}
	.st8{fill:#EE3762;}
	.st9{fill:#FAF0F3;}
	.st10{fill:#EE9821;}
	.st11{fill:#90CB7B;}
	.st12{fill:#4D170F;}
	.st13{fill:#4F170F;}
	.st14{fill:#F1A91E;}
	.st15{fill:#55180B;}
	.st16{fill:#43130E;}
	.st17{fill:#15B9A9;}
	.st18{fill:#F3745F;}
	.st19{fill:#0B6388;}
	.st20{fill:#FCEEE0;}
	.st21{fill:#026088;}
	.st22{fill:#3B1312;}
	.st23{fill:#F2B0C7;}
	.st24{fill:#086188;}
	.st25{fill:#F8DDB8;}
	.st26{fill:#D7A876;}
</style>
<g>
	<g>
		<path class="st0" d="M39.22,28.63c-0.28,0.05-0.56,0.11-0.84,0.17c-1.58,0.38-3.11,1-4.52,1.8c-2.83,1.61-5.23,4-6.78,6.87
			c-0.22,0.4-0.42,0.81-0.6,1.23c-1.19,2.75-1.7,5.68-3.12,8.34c-1.95,3.67-4.79,6.67-7.19,10.03c-1.59,2.22-2.95,4.61-3.99,7.14
			c-1.06,2.58-1.7,5.25-2.06,8.01C9.5,77.07,9.1,82.04,9.93,86.9c0.93,5.44,3.32,10.37,3.68,15.98c0.05,0.84,0.06,1.73-0.32,2.48
			c-0.77,1.51-2.71,1.88-4.14,2.79c-3.05,1.94-3.48,6.49-1.82,9.7c1.66,3.21,4.82,5.34,7.96,7.13c7.68,4.39,16.09,7.67,24.86,8.8
			c9.3,1.2,18.73-0.03,28.11,0.16c10.48,0.22,21.09,2.21,31.34,0.01c3.39-0.73,6.68-1.91,9.76-3.5c7.65-3.96,13.85-10.4,18.36-17.74
			c1.22-1.99,2.37-4.32,1.78-6.58c-0.41-1.56-1.57-2.78-2.47-4.12c-3.08-4.62-2.89-10.66-1.93-16.13
			c0.95-5.47,2.56-10.96,1.92-16.48c-0.38-3.27-1.53-6.38-2.67-9.47c-1.74-4.69-3.48-9.39-5.22-14.09
			c-1.98-5.34-3.12-11.38-9.73-12.1c-5.11-0.56-10.31-0.55-15.44-0.81c-14.18-0.73-28.2-2.95-42.23-4.84
			c-2.58-0.35-5.21-0.49-7.81-0.24c-0.86,0.08-1.82,0.12-2.64,0.41c-0.18,0.06-0.31,0.12-0.5,0.14
			C40.26,28.47,39.74,28.53,39.22,28.63z"/>
	</g>
	<g>
		<path class="st1" d="M37.84,26.26c-0.28,0.05-0.56,0.11-0.84,0.17c-1.58,0.38-3.11,1-4.52,1.8c-2.83,1.61-5.23,4-6.78,6.87
			c-0.22,0.4-0.42,0.81-0.6,1.23c-1.19,2.75-1.7,5.68-3.12,8.34c-1.95,3.67-4.79,6.67-7.19,10.03c-1.59,2.22-2.95,4.61-3.99,7.14
			c-1.06,2.58-1.7,5.25-2.06,8.01c-0.63,4.85-1.03,9.82-0.19,14.68c0.93,5.44,3.32,10.37,3.68,15.98c0.05,0.84,0.06,1.73-0.32,2.48
			c-0.77,1.51-2.71,1.88-4.14,2.79c-3.05,1.94-3.48,6.49-1.82,9.7c1.66,3.21,4.82,5.34,7.96,7.13c7.68,4.39,16.09,7.67,24.86,8.8
			c9.3,1.2,18.73-0.03,28.11,0.16c10.48,0.22,21.09,2.21,31.34,0.01c3.39-0.73,6.68-1.91,9.76-3.5c7.65-3.96,13.85-10.4,18.36-17.74
			c1.22-1.99,2.37-4.32,1.78-6.58c-0.41-1.56-1.57-2.78-2.47-4.12c-3.08-4.62-2.89-10.66-1.93-16.13
			c0.95-5.47,2.56-10.96,1.92-16.48c-0.38-3.27-1.53-6.38-2.67-9.47c-1.74-4.69-3.48-9.39-5.22-14.09
			c-1.98-5.34-3.12-11.38-9.73-12.1c-5.11-0.56-10.31-0.55-15.44-0.81c-14.18-0.73-28.2-2.95-42.23-4.84
			c-2.58-0.35-5.21-0.49-7.81-0.24c-0.86,0.08-1.82,0.12-2.64,0.41c-0.18,0.06-0.31,0.12-0.5,0.14
			C38.88,26.1,38.36,26.17,37.84,26.26z"/>
	</g>
</g>
<g>
	<path class="st2" d="M57.61,31.66c3.73-0.97,7.65-0.76,11.44-0.27c4.86,0.86,9.3,3.31,13.2,6.28c2.8,2.14,6.12,3.5,9.52,4.31
		c3.61,0.94,6.98,2.66,9.88,5.02c0.23,0.56,0.48,1.12,0.72,1.67c-0.17-0.01-0.52-0.04-0.69-0.05c-2.31,7.19-5.22,14.31-9.61,20.5
		c-2.18,2.63-4.24,5.53-7.23,7.31c-2.1,1.31-4.51,2.03-6.93,2.48c-0.52,0.16-1.02-0.01-1.47-0.27c-1.44-0.78-3.1-0.89-4.7-1.05
		c-1.46-1.47-1.51-3.64-1.39-5.58l0.24-0.15c0.81-0.5,1.6-1.05,2.41-1.56c0.2,0.19,0.42,0.37,0.66,0.54
		c2.11,1.44,5.06,1.19,7.16-0.14c3.72-2.16,5.77-6.26,6.8-10.29c0.55-2.88,0.95-6.14-0.64-8.77c-0.78-1.41-2.11-2.35-3.4-3.25
		c-0.06-0.37-0.09-0.75-0.3-1.06c-0.67-0.15-1.28,0.29-1.88,0.5c-0.11-0.46-0.21-0.91-0.31-1.37c-1.12-0.09-1.38,1.03-1.62,1.88
		c-0.67-0.77-1.32-1.56-2.04-2.28c-0.1-0.09-0.29-0.26-0.38-0.35c-2.99-2.77-7.35-3.62-11.29-2.99c-2.55,0.23-5.04,1.29-6.83,3.13
		c-0.08,0.11-0.24,0.32-0.32,0.43c-2.13,2.51-2.66,5.92-2.28,9.1c-0.3,1.5-0.56,3.01-0.61,4.54c-0.37,0.56-0.8,1.08-1.04,1.71
		c-0.14,0.93,0.3,1.83,0.23,2.76c-0.37,0.9-0.89,1.72-1.24,2.62c1.09-1.14,2.4-2.47,1.92-4.21c0.59,1.75,0.76,3.66,1.74,5.26
		c1.11,2.18,3.31,3.55,5.5,4.46c0.12,0.05,0.36,0.14,0.48,0.18c-0.16,1.08-0.32,2.16-0.59,3.22c-1.22-0.16-2.45-0.2-3.66,0.02
		l-0.37,0.05c-4.9-2.81-10.01-5.87-13.09-10.78c-2.16-3.15-3.33-6.84-4.17-10.53c-0.83-3.11-0.79-6.36-1.07-9.54
		c0.04-0.76,0.11-1.53,0.34-2.26c0.85-2.05,3.46-3.35,3.17-5.81c-0.32-0.07-0.95-0.22-1.27-0.3C47.3,34.32,52.38,32.57,57.61,31.66z
		"/>
	<path class="st2" d="M80.44,34.25c0.35-0.14,0.66-0.49,1.07-0.42c6.7,1.55,13.08,4.35,18.95,7.92c0.05,0.76,0.12,1.53,0.24,2.29
		c-1.84-0.93-3.52-2.17-5.5-2.83c-3.13-1.19-6.52-1.7-9.53-3.23C83.76,36.99,82.11,35.59,80.44,34.25z"/>
	<path class="st2" d="M24.53,59.74c2.7-5.11,4.24-10.98,8.4-15.21c0.19,0.5,0.39,0.99,0.6,1.48c-0.08,0.61-0.17,1.22-0.23,1.83
		c-0.92,0.65-1.88,1.32-2.42,2.35c0.76-0.15,1.52-0.36,2.27-0.6c-0.38,3.72,0.1,7.45,0.18,11.18c0.61,4.47,2.26,8.76,4.45,12.7
		c2.58,5.17,6.59,9.48,10.94,13.2c-0.64,3.41-1.78,6.78-1.57,10.3c0.16,4.03,0.93,8.04,2.11,11.89c-2.15-3.04-2.5-6.84-3.14-10.4
		c-0.06-1.17-1.17-1.77-1.77-2.65c-0.34-1.01-0.17-2.28-1.01-3.07c-0.67-0.71-1.72-0.91-2.37-1.62c-0.46-1.69,0.66-3.76-0.67-5.22
		c-0.85-1.09-2.33-0.92-3.52-1.25c-0.35-0.9-0.37-1.93-0.87-2.77c-0.55-0.87-1.61-1.1-2.51-1.42c0.11-1.81,0.59-4.03-0.88-5.44
		c-0.78-0.86-2.44-1.1-2.41-2.49c-0.15-2.49-0.57-5.16-2.29-7.09c-1.23-1.5-3.24-2.41-5.17-1.87C23.07,62.2,23.88,61,24.53,59.74z"
		/>
	<path class="st2" d="M16.34,59.94c3.4-4.97,7.32-9.64,11.89-13.57c-0.3,0.73-0.65,1.44-1.06,2.11c-1.87,3.14-3.09,6.6-4.76,9.84
		c-3.19,6.82-7.82,13.13-9.04,20.72c-0.43-0.26-1-0.43-1.11-0.98c-1.16-3.63-0.84-7.58,0.35-11.16
		C13.5,64.42,14.93,62.17,16.34,59.94z"/>
	<path class="st2" d="M109.89,50.4c0.12-0.22,0.25-0.44,0.39-0.66c1.29,1.35,2.63,2.65,3.91,4.01c2.48,2.75,3.98,6.19,5.32,9.6
		c0.9,2.81,2.06,5.81,1.15,8.78c-1.53-0.34-1.95-2.03-2.74-3.16c-2.42-3.89-4.27-8.1-6.51-12.1c-0.86-1.25-1.45-2.77-2.7-3.7
		C109.04,52.22,109.4,51.28,109.89,50.4z"/>
	<path class="st2" d="M102.05,70.27c2.26-5.16,4.21-10.44,6.15-15.72c2.22,3.4,4.05,7.03,5.75,10.72c0.97,2.56,2.64,4.78,3.69,7.31
		c2.48,5.66,1.94,12.25-0.31,17.9c-0.67-0.72-1.39-1.59-2.48-1.58c-1.7-0.2-3.02,1.19-3.67,2.61c-0.45,1.08-1.35,1.84-2.28,2.51
		c0.17-1.12,0.14-2.3-0.82-3.05c-0.04-1.15-0.54-2.33-0.25-3.45c0.95-1.19,2.82-1.44,3.44-2.96c0.54-1.02,0-2.16-0.02-3.23
		c1.1-1.34,2.64-2.31,3.45-3.9c1.68-2.51,1.05-6.12-1.11-8.14c-1.34-1.16-3.24-0.43-4.65,0.2c-1.82,0.76-2.47,2.72-3.42,4.28
		c-0.72,1.27-2.45,1.44-3.15,2.72c-0.99,1.64-0.56,3.73-1.51,5.37c-1.04,1.73-3.55,1.1-4.79,2.59c-1.23,1.19-1.01,3.2-2.2,4.38
		c-1.57,0.71-3.49,0.57-4.85,1.77c-1.43,1.03-1.31,2.94-1.71,4.46c-0.92,1.41-3.07,0.45-4.15,1.72c-1.43,1.21-1.09,3.25-1.69,4.84
		c-0.78,0.85-2.19,0.97-2.73,2.07c-0.56,1.1-0.26,2.37-0.15,3.53c-1.06-3.93-0.45-8.05-0.57-12.06c1.83-1.15,3.93-1.75,5.76-2.89
		c3.75-2.05,7.58-4.24,10.25-7.68C97.69,80.45,99.91,75.31,102.05,70.27z"/>
	<path class="st2" d="M16.12,90.06c-1.52-6.47-0.91-13.61,2.55-19.37c0.82,2.16,2.55,3.9,2.96,6.22c0.33,1.81,2.4,2.38,3.34,3.8
		c0.97,1.31,0.63,3.22,1.83,4.39c0.76,0.85,1.82,1.31,2.84,1.76c0.33,1.35,0.19,2.76,0.5,4.1c0.57,0.98,1.55,1.62,2.41,2.33
		c0.07,1.23,0.08,2.46,0.1,3.69c-0.72,0.66-1.33,1.53-1.29,2.55c0.09,1.04,0.56,2,0.89,2.98c-1.36-0.92-2.58-2.03-3.66-3.27
		c0.89-1.16,1.92-2.3,2.26-3.76c0.3-1.19-0.24-2.65-1.45-3.07c-0.97-0.25-1.95,0.48-2.37,1.31c-0.51,1.21,0,2.51,0.27,3.72
		c-1.01-1.2-1.98-2.43-2.84-3.73c0.99-1.21,2.07-2.68,1.71-4.34c-0.16-1.04-1.47-1.79-2.35-1.08c-0.82,1.12-0.37,2.61-0.34,3.89
		c-1.72-2.29-1.08-5.41-2.54-7.81c-0.48-0.8-1.25-1.7-2.28-1.6c-1.03,0.46-1.3,1.87-0.78,2.81c1.1,2.23,3.6,3.41,4.45,5.8
		c-1-0.44-2.22-1.34-3.25-0.49c-0.77,0.62-0.26,1.78,0.35,2.32c1.18,1.24,3.03,0.89,4.57,0.94c1.05,1.45,2.23,2.79,3.19,4.3
		c-1.48-0.59-3.13-1.64-4.73-0.88c-1.51,0.76-1.31,3.12,0.21,3.75c1.96,0.84,3.87-0.68,5.43-1.71c0.97,1.02,1.99,1.98,3.05,2.92
		c-1.3,0.07-2.78,0.09-3.72,1.13c-1.31,1.06-0.81,3.63,1.03,3.71c2.14,0.23,3.27-1.91,4.91-2.83c-0.94,1.76-2.6,2.99-4.15,4.2
		c-0.44,0.42-1.02,0.05-1.5-0.06c-1.51-0.48-2.88-1.29-4.26-2.06c-1.58-2.77-3.24-5.51-4.66-8.37
		C17.27,95.78,16.59,92.9,16.12,90.06z"/>
	<path class="st2" d="M110.68,93.26c2.05,0.15,4.22-0.04,5.99-1.18c-0.55,2.49-1.84,4.74-3.08,6.94c-1.93,3.51-5,6.19-8.11,8.62
		c-1.13-1.93-2.28-3.88-3.81-5.53c-0.31-0.43-0.86-0.4-1.32-0.46c-1.05-0.15-2.07-0.38-3.11-0.55c1.08-0.44,2.13-1.06,3.31-1.18
		c2.38,0.68,4.09,3.52,6.86,2.73c1.52-0.4,1.43-2.51,0.26-3.27c-1.68-1.05-3.76-0.6-5.6-0.35c1.04-0.52,2.06-1.08,3.04-1.69
		c1.73,0.75,3.41,1.8,5.35,1.88c0.98,0.07,2.03-0.22,2.73-0.95c0.4-0.78,0.13-1.87-0.71-2.24c-1.54-0.84-3.36-0.43-5.01-0.21
		C108.51,94.94,109.57,94.07,110.68,93.26z"/>
	<path class="st2" d="M104.76,95.08c0.08-0.11,0.26-0.34,0.34-0.45c-0.04,0.68,0.01,1.37-0.12,2.04c-0.27,0.55-0.98,0.68-1.41,1.05
		C103.94,96.82,104.32,95.93,104.76,95.08z"/>
	<path class="st2" d="M93.75,101.76c0.53-1,0.89-2.16,1.84-2.86c-0.07,0.78-0.15,1.57-0.23,2.35
		C94.82,101.41,94.28,101.58,93.75,101.76z"/>
	<path class="st2" d="M90.47,103.76c1.72-0.87,3.56-1.44,5.34-2.17c0.37,0.5,0.74,1,1.11,1.5c-1.05,0.41-2.1,0.79-3.17,1.14
		C92.65,104.09,91.56,103.91,90.47,103.76z"/>
	<path class="st3" d="M35.21,31.87c0.44-1.09,0.74-3.09,2.35-2.66c0.02,0.52,0.05,1.04,0.08,1.55c0.57-0.55,1.23-1.12,2.07-0.74
		c0,2.73-0.16,5.48,0.11,8.21c1-0.33,1.91-0.87,2.79-1.43c0.32,0.07,0.95,0.22,1.27,0.3c0.3,2.46-2.32,3.76-3.17,5.81
		c-0.23,0.73-0.3,1.5-0.34,2.26c-2.29,0.17-4.58,0.41-6.84,0.85c-0.21-0.49-0.42-0.98-0.6-1.48c-0.83-2.88-2.17-5.63-2.39-8.66
		c-0.05-0.45,0.26-1.12,0.81-1.01c0.73,0.6,0.85,1.65,1.59,2.25c0.15-2.44-0.24-5.2,1.16-7.34C35.25,29.54,34.97,31.17,35.21,31.87z
		 M37.41,31.56c-0.07,1.83-0.33,3.71,0.08,5.51c0.11-1.82,0.11-3.65,0.3-5.46C37.7,31.6,37.5,31.58,37.41,31.56z M35.01,34.78
		c0.1,0.87-0.25,1.86,0.22,2.66c0.09-1.76,0.2-3.53,0.04-5.29C34.73,32.9,35.12,33.92,35.01,34.78z"/>
	<path class="st3" d="M110.17,34.93c0.73-0.08,0.86,0.83,1.13,1.31c0.24,0.03,0.72,0.11,0.95,0.14c0.76,2.07-0.59,4.09-0.84,6.13
		c0.53-0.49,1.08-0.98,1.63-1.46c1.09,0.76,0.55,2.13,0.12,3.1c-0.93,1.87-1.79,3.79-2.89,5.58c-0.14,0.22-0.27,0.44-0.39,0.66
		c-2.56-0.35-5.02-1.09-7.51-1.72c-0.25-0.56-0.49-1.11-0.72-1.67c-0.23-1.01-0.57-1.99-0.96-2.96c-0.12-0.76-0.19-1.53-0.24-2.29
		c-0.21-1.08,0.02-2.72,1.49-2.48c1.02,1.31,0.91,3.29,2.24,4.43c0.87-2.38,1.53-4.83,2.5-7.17c0.22-0.41,0.36-0.94,0.83-1.14
		c0.63-0.28,0.94,0.43,1.23,0.83C109.11,35.69,109.42,34.94,110.17,34.93z M111.05,36.59c-0.79,1.96-1.62,3.94-2.11,6
		c0.81-0.75,0.9-1.92,1.3-2.89C110.53,38.68,111.18,37.71,111.05,36.59z M108.43,36.83c-0.47,1.81-0.78,3.68-1.41,5.45
		c0.1,0.04,0.3,0.12,0.4,0.16c0.4-1.33,0.74-2.68,1.1-4.01C108.59,37.9,108.96,37.24,108.43,36.83z"/>
	<path class="st3" d="M59.94,49.3c1.23-1.26,2.96-2.29,4.79-2.06c0.98,0.29,1.92,0.69,2.97,0.7c1.13,0.04,1.09,1.43,1.28,2.24
		c0.08,0.84,0.63,1.5,1.12,2.15c-1.02-1.56-0.64-3.66-2.02-5.02c2.7,0.23,5.27,1.85,6.4,4.35c0.05,0.1,0.15,0.3,0.2,0.4
		c0.9,2.33,1.04,4.86,0.8,7.32l-0.11,0.23c-0.69,1.55-1.86,3.01-1.6,4.81c0.15,1.09-0.56,1.96-0.84,2.95
		c-0.03,0.6,0.17,1.17,0.27,1.76c-0.03,0.17-0.08,0.52-0.1,0.69l-0.08,0.5c-0.82,0.5-1.6,1.05-2.41,1.56
		c-2.49,0.85-5.18,1.15-7.78,0.67c-2.19-0.92-4.39-2.28-5.5-4.46c-0.98-1.61-1.15-3.52-1.74-5.26c-0.11-0.96,0.08-1.91,0.13-2.87
		c0.05-1.53,0.31-3.04,0.61-4.54c0.8-2.01,1.65-4.07,3.19-5.65C59.62,49.65,59.83,49.42,59.94,49.3z M57.39,56.06
		c0.03,0.13,0.09,0.4,0.12,0.52c0.78-0.69,1.78-0.91,2.8-0.81C59.79,54.49,58.11,55.4,57.39,56.06z M69.74,56.74
		c0.52,0.96,1.43,1.64,2.28,2.31C72.16,57.76,70.95,56.78,69.74,56.74z M63.06,60.83c-0.63-0.05-1.5-0.15-1.69,0.65
		c-0.46,0.98,0.71,1.6,1.49,1.83c-0.26-0.82-1.4-1.15-0.86-2.18c0.36,0.24,0.72,0.48,1.09,0.73c0.09-1.6,0.69-3.12,0.65-4.72
		C63.47,58.36,63.27,59.6,63.06,60.83z M57.18,58.59c-0.09,0.49-0.3,0.93-0.52,1.36c1.07,0.41,1.49-1.17,2.54-0.89
		c0.45,0.19,0.9,0.39,1.35,0.6c-0.38-1.32-1.96-1.11-2.89-0.56C57.53,58.98,57.29,58.72,57.18,58.59z M67.94,61.72
		c0.38-0.18,0.78-0.33,1.18-0.47c0.96-0.25,1.47,1.06,2.42,0.83c0.25-0.6-0.22-1.28-0.89-1.09C69.7,60.73,68.3,60.51,67.94,61.72z
		 M57.42,61.96c-1.04,0.31-1.03,1.77-0.46,2.51c0.97,1.09,3.07-0.15,2.55-1.54C59.31,62.06,58.2,61.59,57.42,61.96z M69.13,63.36
		c-0.82,0.43-1.03,1.56-0.56,2.33c0.64,1.22,2.88,0.93,3.06-0.5C72.06,63.74,70.34,62.71,69.13,63.36z M60.77,65.32
		c-0.61,0.03-0.29,0.64-0.24,1c0.19,0.52,0.35,1.05,0.49,1.59c0.4,0.75,0.85,1.77,1.85,1.76c1.47,0.3,1.88-1.45,2.36-2.45
		c0.03-0.28,0.05-0.56,0.09-0.83c0.11-0.2,0.32-0.6,0.42-0.8C64.09,65.47,62.43,65.31,60.77,65.32z"/>
	<path class="st3" d="M75.34,62.26c0.71-0.87,1.54-2.37,2.87-1.95c1.65,1.13,1.57,4.1-0.29,4.98c-0.92,0.51-1.98,0.29-2.96,0.16
		c-0.09,0.2-0.27,0.61-0.37,0.81c-0.04,0.09-0.12,0.27-0.16,0.35c-0.34,0.79-0.69,1.58-1.08,2.35c-0.3-1.33,0.54-2.4,1.06-3.52
		C74.59,64.34,74.53,63.13,75.34,62.26z M75.67,64.3c0.59-0.12,1.37,0.07,1.8-0.47c-0.15-0.11-0.45-0.33-0.6-0.44
		c0.25-0.35,0.47-0.73,0.66-1.11C76.81,62.84,76.06,63.44,75.67,64.3z"/>
	<path class="st3" d="M63.31,72.72c2.35,0.36,4.85,0.26,7.06-0.7c-0.13,1.94-0.07,4.1,1.39,5.58c-1.5,2.04-2.66,4.32-3.48,6.71
		c-2.8-0.41-5.62-0.65-8.44-0.8c0.46-2.7,1.97-5.03,2.89-7.57C62.99,74.88,63.15,73.8,63.31,72.72z"/>
	<path class="st4" d="M37.41,31.56c0.1,0.01,0.29,0.04,0.38,0.05c-0.19,1.81-0.19,3.64-0.3,5.46
		C37.08,35.27,37.34,33.39,37.41,31.56z"/>
	<path class="st4" d="M35.01,34.78c0.11-0.86-0.28-1.88,0.26-2.63c0.15,1.76,0.04,3.53-0.04,5.29
		C34.76,36.64,35.1,35.65,35.01,34.78z"/>
	<path class="st4" d="M111.05,36.59c0.14,1.11-0.51,2.08-0.81,3.11c-0.39,0.98-0.49,2.14-1.3,2.89
		C109.42,40.54,110.25,38.56,111.05,36.59z"/>
	<path class="st4" d="M108.43,36.83c0.53,0.41,0.17,1.08,0.08,1.6c-0.37,1.34-0.71,2.68-1.1,4.01c-0.1-0.04-0.3-0.12-0.4-0.16
		C107.64,40.5,107.95,38.64,108.43,36.83z"/>
	<path class="st4" d="M65.77,42.74c3.94-0.64,8.3,0.22,11.29,2.99c-1.03,0.44-2.05,1.03-3.2,1.06c-1.59,0.07-3.17-0.25-4.76-0.17
		c2.73,0.74,5.9,1.27,8.35-0.55c0.72,0.72,1.36,1.51,2.04,2.28c0.12,0.49,0.26,0.99,0.42,1.47c0.18,0.55,0.38,1.09,0.57,1.64
		l0.05,0.14c-1.98,0.59-4.03,0.28-5.96-0.35l-0.09,0.4c-1.13-2.51-3.7-4.12-6.4-4.35c1.38,1.36,1,3.46,2.02,5.02
		c-0.49-0.65-1.04-1.31-1.12-2.15c-0.19-0.81-0.15-2.2-1.28-2.24c-1.04-0.01-1.99-0.41-2.97-0.7c-1.83-0.23-3.56,0.8-4.79,2.06
		c-0.48-1.1-0.75-2.27-1.01-3.43C60.73,44.03,63.22,42.97,65.77,42.74z"/>
	<path class="st4" d="M58.61,46.3c0.04,1.2,0.25,2.42,0.9,3.46c-1.54,1.57-2.39,3.63-3.19,5.65C55.95,52.22,56.48,48.81,58.61,46.3z
		"/>
	<path class="st4" d="M83.52,48.86c0.02-0.11,0.06-0.34,0.08-0.45c1.29,0.9,2.62,1.84,3.4,3.25c1.59,2.63,1.19,5.89,0.64,8.77
		c-1.03,4.03-3.08,8.13-6.8,10.29c-2.1,1.33-5.06,1.58-7.16,0.14c3.19,0.55,6.68-0.41,8.91-2.82c3.71-3.91,5.43-10.11,3.03-15.11
		c-0.07,1.79,0.65,3.5,0.55,5.29c-0.24,3.88-1.93,7.76-4.94,10.27c-2.24,1.75-5.49,2.79-8.14,1.34c0.03-0.17,0.08-0.52,0.1-0.69
		c-0.1-0.59-0.3-1.16-0.27-1.76c0.27-0.99,0.99-1.86,0.84-2.95c-0.26-1.8,0.91-3.26,1.6-4.81c1.66,0.21,3.36-0.12,4.76-1.06
		c-0.15,0.77-0.08,1.55,0.03,2.32c0.52-0.26,0.95-0.65,1.35-1.07c0.42,0.27,0.84,0.67,1.4,0.53c0.04-0.6,0.03-1.2,0.03-1.8
		c0.23,0.05,0.69,0.15,0.92,0.2c0.51,2.34-0.54,4.86-2.54,6.18c-1.89,1.49-4.41,1.65-6.71,1.35c0.09-0.2,0.27-0.61,0.37-0.81
		c0.98,0.12,2.03,0.35,2.96-0.16c1.86-0.88,1.95-3.85,0.29-4.98c-1.34-0.42-2.16,1.08-2.87,1.95c-0.82,0.87-0.75,2.09-0.92,3.19
		c-0.52,1.13-1.36,2.19-1.06,3.52c0.39-0.77,0.74-1.56,1.08-2.35c3.35,1.02,7.59-0.02,9.45-3.15c0.87-1.36,0.61-3.03,0.68-4.56
		c0.92-0.76,0.15-1.66-0.45-2.32c0.4-0.3,0.86-0.53,1.18-0.93c0.15-0.66-0.69-0.86-1.06-1.22c0.13-0.61,0.25-1.23,0.38-1.84
		c-0.81,0-1.62-0.01-2.43-0.04c0.66-0.24,1.34-0.43,2.02-0.62c-0.28-0.45-0.56-0.9-0.83-1.35c0.4-0.16,0.8-0.33,1.21-0.49
		C84.42,49.51,84.04,49.11,83.52,48.86z"/>
	<path class="st4" d="M74.68,52.06c1.95,0.57,4.08,0.89,5.96-0.09c0.27,1.03,0.35,2.11,0.26,3.18c-0.05,0.32-0.15,0.97-0.2,1.29
		c-0.12,0.52-0.26,1.04-0.41,1.56c-1.55,0.65-3.1,1.36-4.82,1.39C75.72,56.92,75.58,54.39,74.68,52.06z"/>
	<path class="st4" d="M57.39,56.06c0.72-0.66,2.4-1.58,2.92-0.29c-1.02-0.1-2.02,0.12-2.8,0.81C57.48,56.46,57.43,56.2,57.39,56.06z
		"/>
	<path class="st4" d="M69.74,56.74c1.2,0.04,2.41,1.02,2.28,2.31C71.17,58.38,70.26,57.7,69.74,56.74z"/>
	<path class="st4" d="M63.06,60.83c0.2-1.23,0.41-2.47,0.68-3.69c0.03,1.61-0.56,3.13-0.65,4.72c-0.36-0.25-0.72-0.49-1.09-0.73
		c-0.54,1.03,0.6,1.36,0.86,2.18c-0.78-0.22-1.95-0.85-1.49-1.83C61.56,60.69,62.43,60.78,63.06,60.83z"/>
	<path class="st4" d="M57.18,58.59c0.12,0.13,0.35,0.39,0.46,0.52c0.93-0.55,2.51-0.76,2.89,0.56c-0.45-0.22-0.9-0.42-1.35-0.6
		c-1.05-0.29-1.47,1.3-2.54,0.89C56.88,59.52,57.09,59.08,57.18,58.59z"/>
	<path class="st4" d="M55.72,59.94c-0.05,0.96-0.24,1.91-0.13,2.87c0.48,1.74-0.83,3.07-1.92,4.21c0.35-0.9,0.88-1.72,1.24-2.62
		c0.07-0.93-0.37-1.83-0.23-2.76C54.92,61.02,55.35,60.5,55.72,59.94z"/>
	<path class="st4" d="M67.94,61.72c0.36-1.21,1.76-0.99,2.71-0.73c0.67-0.19,1.15,0.48,0.89,1.09c-0.95,0.24-1.46-1.07-2.42-0.83
		C68.71,61.39,68.32,61.54,67.94,61.72z"/>
	<path class="st4" d="M75.67,64.3c0.39-0.86,1.14-1.46,1.87-2.02c-0.19,0.38-0.42,0.76-0.66,1.11c0.15,0.11,0.45,0.33,0.6,0.44
		C77.04,64.37,76.27,64.19,75.67,64.3z"/>
	<path class="st4" d="M62.83,72.54c2.6,0.48,5.29,0.18,7.78-0.67l-0.24,0.15c-2.21,0.95-4.71,1.05-7.06,0.7
		C63.19,72.68,62.95,72.59,62.83,72.54z"/>
	<path class="st5" d="M33.53,46.01c2.25-0.44,4.54-0.67,6.84-0.85c0.28,3.19,0.23,6.43,1.07,9.54c0.84,3.69,2.01,7.38,4.17,10.53
		c3.07,4.91,8.18,7.96,13.09,10.78c-1.82,2.61-2.48,5.77-3.78,8.62c-0.47-0.39-0.8-1.14-1.51-1.08c-1.15,0.13-1.98,1.81-1,2.64
		c0.62,0.68,1.44-0.01,2.14-0.18c-0.46,2.43-1.16,4.82-1.25,7.31c-0.15,3.66-0.18,7.34,0.37,10.97c0.4,2.24,1.04,4.43,1.33,6.7
		c-1.9-0.51-3.75-1.15-5.61-1.76l-0.12-0.37c-1.18-3.86-1.95-7.86-2.11-11.89c-0.21-3.52,0.93-6.89,1.57-10.3
		c-4.36-3.73-8.37-8.03-10.94-13.2c-2.18-3.94-3.83-8.22-4.45-12.7c-0.08-3.73-0.56-7.46-0.18-11.18c0.05-0.58,0.09-1.17,0.15-1.75
		C33.36,47.23,33.45,46.62,33.53,46.01z M33.75,51.43c-0.75,0.73-0.48,2.32,0.6,2.62c1.09,0.18,1.79-1.09,1.62-2.04
		C35.69,51.1,34.43,50.72,33.75,51.43z M40.97,60.13c-1.74,0.64-0.77,3.91,1.06,2.74C43.71,62.26,42.59,59.5,40.97,60.13z
		 M40.23,73.25c-1.32,0.56-0.3,3.04,1.02,2.14C42.49,74.79,41.48,72.51,40.23,73.25z M53.75,75.47c-0.93,0.41-1.33,1.88-0.33,2.45
		c0.76,0.57,1.6-0.29,1.76-1.03C55.54,76.08,54.58,75.07,53.75,75.47z M49.1,96.39c-0.96,0.59-1.01,2.37,0.24,2.65
		C51.12,99.17,50.87,95.74,49.1,96.39z M51.25,105.46c-1.01,0.52-0.58,1.75-0.01,2.44c0.82,0.57,1.96-0.12,1.96-1.08
		C53.44,105.82,52.11,104.75,51.25,105.46z"/>
	<path class="st5" d="M101.69,48.63c0.17,0.01,0.52,0.04,0.69,0.05c2.49,0.63,4.95,1.38,7.51,1.72c-0.49,0.88-0.85,1.83-1.18,2.77
		c-0.17,0.46-0.34,0.92-0.5,1.38c-1.94,5.28-3.9,10.56-6.15,15.72c-2.14,5.04-4.35,10.18-8,14.34c-2.67,3.43-6.5,5.63-10.25,7.68
		c-1.83,1.15-3.94,1.74-5.76,2.89c0.12,4.01-0.49,8.13,0.57,12.06c0.07,0.76,0.8,1.96-0.12,2.44c-1.25,0.56-2.66,0.55-3.96,0.92
		c-2.03,0.57-4.16,0.55-6.22,0.96c-0.19-5.01,0.2-10.09,1.6-14.92c0.81-3.27,2.11-6.37,3.2-9.55c0.94-2.72,2.56-5.11,3.73-7.72
		c-0.59-0.42-0.89,0.44-1.22,0.76c-2.33,3.9-3.98,8.16-5.51,12.42c-2.22,6.09-3.23,12.66-2.59,19.14c-0.61,0.08-1.23,0.13-1.83,0.18
		c-0.3-1.13-0.52-2.28-0.6-3.44c-0.23-6.59,0.04-13.31,1.98-19.66c0.12-0.55,0.37-1.11,0.28-1.69c-2.77-0.59-5.65-0.55-8.48-0.65
		c-0.46,0.54-0.67,1.24-0.87,1.91c-1.29,4.83-1.78,9.89-1.28,14.87c0.12,1.76,0.8,3.41,1.1,5.14c0.17,1.13,0.4,2.25,0.69,3.36
		c-0.87-0.14-1.74-0.32-2.61-0.5c-0.27-2.93-1.17-5.77-1.4-8.71c-0.7-5.74-0.25-11.65,1.45-17.18c0.91-3.16,2.23-6.18,3.12-9.35
		c1.21-0.23,2.44-0.19,3.66-0.02c-0.92,2.54-2.43,4.88-2.89,7.57c-0.21,0.72-0.52,1.42-0.79,2.12c2.88-0.04,5.75,0.23,8.58,0.72
		c0.22-0.68,0.42-1.36,0.65-2.04c0.82-2.4,1.98-4.68,3.48-6.71c1.6,0.16,3.26,0.27,4.7,1.05c0.45,0.26,0.94,0.42,1.47,0.27
		c2.42-0.45,4.83-1.17,6.93-2.48c2.99-1.78,5.05-4.67,7.23-7.31C96.47,62.93,99.38,55.82,101.69,48.63z M102.54,51.42
		c-1,0.29-0.88,2.04,0.24,1.96C104.25,53.46,104.07,50.69,102.54,51.42z M106.92,51.45c-0.95,0.44-0.52,2.16,0.57,1.9
		C108.78,53.17,108.23,50.68,106.92,51.45z M103.64,60.57c-0.6,0.27-1.25,0.96-0.89,1.66c0.33,0.94,1.85,0.9,2.14-0.05
		C105.5,61.39,104.57,60.13,103.64,60.57z M97.39,65.68c-0.78,0.5-1.62,1.33-1.17,2.35c0.82,1.03,2.46,0.43,2.98-0.62
		C99.85,66.38,98.39,64.89,97.39,65.68z M91.83,79.84c-1.09,0.38-1.8,2.07-0.7,2.81c1.24,0.76,2.62-0.51,2.72-1.76
		C93.9,79.9,92.61,79.18,91.83,79.84z M78.74,82.51c-0.42,0.46-0.56,1.19-0.24,1.74c0.56,0.78,2.12,0.59,2.28-0.44
		C81.09,82.71,79.62,81.7,78.74,82.51z M80.82,88.65c-0.8,0.22-0.76,1.17-0.5,1.8c0.33,0.97,1.93,0.89,2.27-0.04
		C83.32,89.33,81.89,87.92,80.82,88.65z M72.55,95.64c-1.13,0.59-1.16,2.5,0.1,2.96c1.38,0.67,2.8-1.03,2.32-2.35
		C74.74,95.2,73.29,95.1,72.55,95.64z"/>
	<path class="st6" d="M77.06,45.73c0.1,0.09,0.29,0.26,0.38,0.35c-2.45,1.81-5.61,1.29-8.35,0.55c1.59-0.08,3.17,0.23,4.76,0.17
		C75.01,46.76,76.03,46.17,77.06,45.73z"/>
	<path class="st7" d="M58.61,46.3c0.08-0.11,0.24-0.32,0.32-0.43c0.26,1.16,0.52,2.33,1.01,3.43c-0.11,0.11-0.32,0.34-0.42,0.46
		C58.86,48.72,58.65,47.51,58.61,46.3z"/>
	<path class="st8" d="M79.48,48.35c0.25-0.85,0.5-1.97,1.62-1.88c0.1,0.46,0.2,0.91,0.31,1.37c0.61-0.21,1.21-0.65,1.88-0.5
		c0.22,0.31,0.25,0.69,0.3,1.06c-0.02,0.11-0.06,0.34-0.08,0.45c0.52,0.25,0.91,0.65,1.08,1.23c-0.41,0.16-0.81,0.33-1.21,0.49
		c0.27,0.45,0.55,0.9,0.83,1.35c-0.69,0.19-1.36,0.38-2.02,0.62c0.81,0.03,1.62,0.03,2.43,0.04c-0.13,0.61-0.25,1.23-0.38,1.84
		c0.37,0.35,1.21,0.56,1.06,1.22c-0.32,0.4-0.78,0.63-1.18,0.93c0.6,0.66,1.37,1.56,0.45,2.32c-0.18-0.04-0.54-0.12-0.72-0.16
		c-0.23-0.05-0.69-0.15-0.92-0.2c0,0.6,0.01,1.2-0.03,1.8c-0.56,0.14-0.97-0.26-1.4-0.53c-0.4,0.42-0.83,0.81-1.35,1.07
		c-0.11-0.77-0.18-1.55-0.03-2.32L80.3,58c0.14-0.52,0.29-1.04,0.41-1.56c0.73,0.58,1.94,0.33,1.65-0.8
		c0.19-1.09-0.83-0.57-1.45-0.49c0.08-1.06,0.01-2.14-0.26-3.18l-0.11-0.37l-0.05-0.14c0.51-0.27,1.34-0.57,1.09-1.33
		c-0.13-0.91-1.12-0.47-1.66-0.31C79.74,49.34,79.6,48.85,79.48,48.35z"/>
	<path class="st8" d="M61.02,67.91c1.28-0.46,2.54-1.05,3.91-1.23c0.08,0.13,0.23,0.4,0.3,0.53c-0.48,1-0.89,2.75-2.36,2.45
		C61.87,69.68,61.43,68.66,61.02,67.91z"/>
	<path class="st8" d="M59.83,83.51c2.82,0.16,5.64,0.4,8.44,0.8c-0.23,0.68-0.44,1.36-0.65,2.04c-2.84-0.5-5.7-0.76-8.58-0.72
		C59.31,84.93,59.62,84.24,59.83,83.51z"/>
	<path class="st8" d="M58.86,86.42c2.82,0.1,5.71,0.07,8.48,0.65c0.09,0.57-0.16,1.13-0.28,1.69c-1.94,6.35-2.21,13.07-1.98,19.66
		c-2.42,0.08-4.84,0.01-7.27-0.08c-0.31-1.73-0.98-3.37-1.1-5.14c-0.5-4.98-0.01-10.04,1.28-14.87
		C58.19,87.66,58.4,86.96,58.86,86.42z"/>
	<path class="st9" d="M30.88,50.19c0.55-1.02,1.5-1.69,2.42-2.35c-0.06,0.58-0.11,1.17-0.15,1.75
		C32.4,49.83,31.65,50.04,30.88,50.19z"/>
	<path class="st10" d="M79.91,49.83c0.55-0.16,1.53-0.61,1.66,0.31c0.25,0.76-0.59,1.06-1.09,1.33
		C80.28,50.92,80.09,50.38,79.91,49.83z"/>
	<path class="st11" d="M33.75,51.43c0.68-0.71,1.94-0.33,2.22,0.58c0.17,0.95-0.53,2.22-1.62,2.04
		C33.26,53.75,32.99,52.16,33.75,51.43z"/>
	<path class="st11" d="M102.54,51.42c1.54-0.72,1.71,2.05,0.24,1.96C101.65,53.45,101.53,51.71,102.54,51.42z"/>
	<path class="st11" d="M106.92,51.45c1.31-0.77,1.87,1.72,0.57,1.9C106.4,53.6,105.97,51.88,106.92,51.45z"/>
	<path class="st11" d="M40.97,60.13c1.62-0.63,2.74,2.13,1.06,2.74C40.2,64.04,39.23,60.77,40.97,60.13z"/>
	<path class="st11" d="M103.64,60.57c0.92-0.44,1.85,0.82,1.25,1.61c-0.29,0.96-1.81,0.99-2.14,0.05
		C102.4,61.53,103.04,60.84,103.64,60.57z"/>
	<path class="st11" d="M97.39,65.68c1-0.79,2.46,0.7,1.81,1.73c-0.52,1.05-2.16,1.65-2.98,0.62C95.77,67.01,96.62,66.18,97.39,65.68
		z"/>
	<path class="st11" d="M40.23,73.25c1.25-0.74,2.26,1.54,1.02,2.14C39.93,76.29,38.91,73.81,40.23,73.25z"/>
	<path class="st11" d="M53.75,75.47c0.83-0.4,1.79,0.61,1.42,1.42c-0.15,0.74-0.99,1.6-1.76,1.03
		C52.42,77.35,52.82,75.88,53.75,75.47z"/>
	<path class="st11" d="M91.83,79.84c0.78-0.66,2.07,0.06,2.02,1.05c-0.1,1.25-1.48,2.52-2.72,1.76
		C90.02,81.91,90.74,80.22,91.83,79.84z"/>
	<path class="st11" d="M78.74,82.51c0.88-0.82,2.35,0.19,2.03,1.3c-0.16,1.03-1.72,1.22-2.28,0.44
		C78.18,83.7,78.32,82.97,78.74,82.51z"/>
	<path class="st11" d="M18.68,82.78c1.03-0.1,1.8,0.8,2.28,1.6c1.46,2.4,0.82,5.52,2.54,7.81c-0.03-1.28-0.48-2.77,0.34-3.89
		c0.88-0.71,2.2,0.04,2.35,1.08c0.36,1.66-0.72,3.13-1.71,4.34c0.86,1.3,1.83,2.54,2.84,3.73c-0.26-1.21-0.78-2.51-0.27-3.72
		c0.42-0.83,1.39-1.56,2.37-1.31c1.2,0.43,1.75,1.89,1.45,3.07c-0.34,1.46-1.38,2.6-2.26,3.76c1.07,1.24,2.29,2.36,3.66,3.27
		c-0.33-0.98-0.8-1.94-0.89-2.98c-0.04-1.02,0.56-1.89,1.29-2.55c0.78-0.11,1.7-0.2,2.26,0.48c0.87,1.2,0.46,2.79-0.04,4.05
		c-0.37,0.87-0.73,1.77-0.85,2.73c-0.22,0.1-0.42,0.2-0.63,0.3c-1.64,0.92-2.78,3.06-4.91,2.83c-1.84-0.08-2.34-2.66-1.03-3.71
		c0.94-1.05,2.42-1.06,3.72-1.13c-1.06-0.94-2.08-1.9-3.05-2.92c-1.56,1.03-3.47,2.55-5.43,1.71c-1.52-0.63-1.72-2.99-0.21-3.75
		c1.6-0.76,3.26,0.29,4.73,0.88c-0.96-1.51-2.15-2.85-3.19-4.3c-1.54-0.04-3.39,0.3-4.57-0.94c-0.62-0.54-1.12-1.7-0.35-2.32
		c1.02-0.85,2.25,0.06,3.25,0.49C21.5,89,19,87.81,17.9,85.59C17.38,84.65,17.65,83.24,18.68,82.78z"/>
	<path class="st11" d="M52.4,86.2c-0.97-0.83-0.15-2.51,1-2.64c0.71-0.06,1.04,0.69,1.51,1.08c-0.16,0.45-0.29,0.91-0.38,1.39
		C53.84,86.19,53.02,86.87,52.4,86.2z"/>
	<path class="st11" d="M80.82,88.65c1.06-0.73,2.5,0.68,1.77,1.76c-0.34,0.93-1.94,1.01-2.27,0.04
		C80.06,89.82,80.02,88.87,80.82,88.65z"/>
	<path class="st11" d="M111.18,91.49c0.65-1.42,1.98-2.81,3.67-2.61c1.08-0.01,1.8,0.86,2.48,1.58c-0.16,0.5-0.33,1.01-0.49,1.51
		l-0.17,0.1c-1.77,1.14-3.94,1.33-5.99,1.18c-1.11,0.81-2.17,1.68-3.22,2.57c1.64-0.22,3.46-0.63,5.01,0.21
		c0.84,0.37,1.1,1.46,0.71,2.24c-0.7,0.73-1.75,1.02-2.73,0.95c-1.94-0.08-3.62-1.13-5.35-1.88c-0.98,0.62-2,1.18-3.04,1.69
		c1.84-0.25,3.93-0.7,5.6,0.35c1.18,0.76,1.27,2.86-0.26,3.27c-2.76,0.8-4.47-2.04-6.86-2.73c-1.18,0.11-2.23,0.74-3.31,1.18
		c1.04,0.17,2.07,0.4,3.11,0.55c-1.13,0.51-2.28,1-3.44,1.43c-0.37-0.5-0.74-1-1.11-1.5c-1.78,0.73-3.62,1.3-5.34,2.17
		c1.09,0.15,2.18,0.33,3.28,0.46c-1.48,0.56-2.92,1.21-4.38,1.81c-0.38-0.42-0.75-0.84-1.12-1.25c-1.5,1-3.08,1.89-4.41,3.11
		c-0.55,0.27-1.1,0.52-1.66,0.74c1.84-1.77,3.97-3.2,6.12-4.56c-0.27-0.76-0.52-1.53-0.67-2.32c-0.01-0.25-0.04-0.75-0.05-1
		c0.05-1.62,0.45-3.68,2.14-4.35c0.52-0.3,1.01,0.06,1.45,0.34c0.16,0.31,0.31,0.63,0.48,0.94c0.71,1.96-0.67,3.76-1.49,5.44
		c1.19-0.46,2.38-0.94,3.59-1.36c0.53-0.18,1.07-0.35,1.61-0.51c0.09-0.78,0.17-1.56,0.23-2.35c0.12-1.14,0.15-2.33,0.62-3.39
		c0.57-1.12,2.49-1.5,3.15-0.25c0.59,1.3-0.26,2.65-1.06,3.64c-0.64,0.55-1.23,1.15-1.79,1.77c1.45-0.39,2.84-0.99,4.24-1.53
		c-0.08-0.6-0.16-1.19-0.22-1.78c-0.18-1.64,0.18-3.39,1.25-4.66c0.56-0.55,1.58-0.83,2.21-0.24c0.79,0.62,0.68,1.72,0.77,2.62
		c-0.44,0.86-0.82,1.74-1.19,2.63c0.42-0.37,1.14-0.5,1.41-1.05c0.14-0.67,0.08-1.36,0.12-2.04c0.22-0.77,0.38-1.57,0.78-2.27
		c0.48-0.78,1.4-1.06,2.19-1.4c0.96,0.75,0.99,1.93,0.82,3.05C109.83,93.34,110.72,92.58,111.18,91.49z"/>
	<path class="st11" d="M72.55,95.64c0.74-0.54,2.19-0.44,2.42,0.61c0.48,1.32-0.94,3.02-2.32,2.35
		C71.39,98.14,71.42,96.23,72.55,95.64z"/>
	<path class="st11" d="M49.1,96.39c1.77-0.65,2.02,2.77,0.24,2.65C48.09,98.77,48.14,96.98,49.1,96.39z"/>
	<path class="st11" d="M51.25,105.46c0.86-0.71,2.19,0.35,1.96,1.36c-0.01,0.96-1.15,1.65-1.96,1.08
		C50.68,107.21,50.24,105.98,51.25,105.46z"/>
	<path class="st11" d="M57.82,108.34c2.42,0.09,4.84,0.16,7.27,0.08c0.08,1.16,0.29,2.31,0.6,3.44c-2.39,0.06-4.79,0.04-7.17-0.16
		C58.21,110.59,57.99,109.47,57.82,108.34z"/>
	<path class="st12" d="M74.57,51.26c1.93,0.63,3.97,0.94,5.96,0.35l0.11,0.37c-1.88,0.98-4.01,0.66-5.96,0.09
		c-0.05-0.1-0.15-0.3-0.2-0.4L74.57,51.26z"/>
	<path class="st13" d="M85.62,52.92c2.39,5.01,0.67,11.2-3.03,15.11c-2.22,2.41-5.72,3.38-8.91,2.82c-0.24-0.16-0.46-0.34-0.66-0.54
		l0.08-0.5c2.65,1.45,5.9,0.41,8.14-1.34c3.01-2.52,4.7-6.4,4.94-10.27C86.28,56.42,85.56,54.71,85.62,52.92z"/>
	<path class="st14" d="M80.9,55.15c0.62-0.09,1.65-0.6,1.45,0.49c0.29,1.13-0.92,1.38-1.65,0.8C80.75,56.11,80.85,55.47,80.9,55.15z
		"/>
	<path class="st15" d="M75.48,59.38c1.72-0.02,3.26-0.73,4.82-1.39l-0.17,0.55c-1.4,0.94-3.09,1.27-4.76,1.06L75.48,59.38z"/>
	<path class="st16" d="M83.85,58.73c0.18,0.04,0.55,0.12,0.72,0.16c-0.07,1.53,0.19,3.21-0.68,4.56c-1.86,3.14-6.1,4.18-9.45,3.15
		c0.04-0.09,0.12-0.27,0.16-0.35c2.3,0.3,4.82,0.14,6.71-1.35C83.31,63.6,84.36,61.07,83.85,58.73z"/>
	<path class="st17" d="M22.64,63.56c1.93-0.54,3.94,0.37,5.17,1.87c1.72,1.93,2.14,4.6,2.29,7.09c-0.02,1.39,1.64,1.63,2.41,2.49
		c1.47,1.41,0.99,3.63,0.88,5.44c0.89,0.32,1.96,0.55,2.51,1.42c0.51,0.84,0.52,1.87,0.87,2.77c1.2,0.33,2.68,0.16,3.52,1.25
		c1.33,1.46,0.21,3.53,0.67,5.22c0.65,0.71,1.7,0.91,2.37,1.62c0.84,0.79,0.67,2.06,1.01,3.07c0.6,0.88,1.71,1.47,1.77,2.65
		c0.64,3.56,1,7.35,3.14,10.4l0.12,0.37c-1.23-0.34-2.42-0.77-3.59-1.28c-0.49-2.28-2.1-4.02-3.3-5.95c-1.15-1.84-2.5-3.6-3.1-5.72
		c-1.06-3.76-2.77-7.41-5.36-10.36c-2.1-2.52-4.53-4.78-6.25-7.59c-1.99-2.97-3.13-6.38-4.24-9.74c-0.48-1.45-0.77-2.99-1.6-4.28
		c0.07,0.74,0.18,1.47,0.4,2.18c1.18,3.82,2.2,7.75,4.21,11.24c1.93,3.64,4.88,6.56,7.45,9.74c2.06,2.69,3.58,5.8,4.5,9.06
		c1.23,4.21,4.78,7.17,6.54,11.12c-1.9-0.76-3.71-1.74-5.56-2.6c-1.72-0.89-3.79-1.58-4.59-3.52c0.5-1.26,0.91-2.85,0.04-4.05
		c-0.56-0.68-1.49-0.59-2.26-0.48c-0.01-1.23-0.03-2.46-0.1-3.69c-0.86-0.71-1.84-1.34-2.41-2.33c-0.32-1.34-0.17-2.76-0.5-4.1
		c-1.02-0.45-2.09-0.91-2.84-1.76c-1.2-1.17-0.86-3.08-1.83-4.39c-0.94-1.42-3.01-1.99-3.34-3.8c-0.41-2.33-2.13-4.07-2.96-6.22
		c-0.71-1.76,0.27-3.57,1.19-5.03C20.49,64.64,21.49,63.89,22.64,63.56z"/>
	<path class="st17" d="M108.95,69.49c1.4-0.63,3.31-1.36,4.65-0.2c2.16,2.02,2.79,5.63,1.11,8.14c-0.81,1.58-2.35,2.56-3.45,3.9
		c0.02,1.07,0.56,2.21,0.02,3.23c-0.62,1.51-2.49,1.77-3.44,2.96c-0.3,1.11,0.21,2.3,0.25,3.45c-0.79,0.34-1.71,0.62-2.19,1.4
		c-0.4,0.7-0.56,1.5-0.78,2.27c-0.09,0.11-0.26,0.34-0.34,0.45c-0.1-0.89,0.02-1.99-0.77-2.62c-0.64-0.59-1.66-0.31-2.21,0.24
		c-1.08,1.28-1.44,3.03-1.25,4.66c-0.66,0.63-1.42,1.13-2.23,1.54c0.8-0.99,1.65-2.34,1.06-3.64c-0.65-1.25-2.58-0.86-3.15,0.25
		c-0.48,1.06-0.5,2.25-0.62,3.39c-0.95,0.7-1.31,1.85-1.84,2.86c-1.21,0.43-2.4,0.91-3.59,1.36c0.82-1.68,2.2-3.48,1.49-5.44
		c1.57-1.76,2.99-3.7,4.91-5.11c1.76-1.4,3.86-2.41,5.34-4.15c3.22-3.63,5.87-7.74,7.95-12.11c1.03-2.14,2.39-4.19,2.81-6.57
		c-0.39,0.42-0.76,0.85-1,1.37c-2.7,5.79-5.74,11.53-10.09,16.26c-1.71,2.01-4.19,3.09-6.17,4.78c-1.64,1.31-2.79,3.09-4.23,4.6
		c-0.44-0.28-0.92-0.64-1.45-0.34c-1.69,0.67-2.09,2.73-2.14,4.35c-1.53,1.28-2.83,2.81-4.41,4.04c-1.59,1.24-2.58,3.03-3.96,4.47
		c-0.18-0.68-0.41-1.35-0.61-2.02c-0.1-1.17-0.4-2.44,0.15-3.53c0.54-1.1,1.95-1.22,2.73-2.07c0.6-1.59,0.26-3.64,1.69-4.84
		c1.07-1.27,3.23-0.31,4.15-1.72c0.4-1.52,0.28-3.44,1.71-4.46c1.36-1.2,3.28-1.06,4.85-1.77c1.19-1.18,0.97-3.19,2.2-4.38
		c1.24-1.49,3.75-0.86,4.79-2.59c0.95-1.64,0.52-3.74,1.51-5.37c0.7-1.28,2.43-1.45,3.15-2.72
		C106.47,72.21,107.13,70.25,108.95,69.49z"/>
	<path class="st17" d="M83.61,105.61c1.42-1.2,2.69-2.56,4.02-3.85c0.15,0.79,0.4,1.56,0.67,2.32c-2.16,1.36-4.28,2.79-6.12,4.56
		c-0.38,0.15-0.77,0.29-1.16,0.42C81.61,107.74,82.49,106.55,83.61,105.61z"/>
	<path class="st18" d="M57.42,61.96c0.78-0.37,1.89,0.1,2.08,0.97c0.52,1.39-1.58,2.63-2.55,1.54
		C56.39,63.74,56.38,62.27,57.42,61.96z"/>
	<path class="st18" d="M69.13,63.36c1.21-0.64,2.93,0.38,2.49,1.82c-0.17,1.44-2.41,1.73-3.06,0.5
		C68.1,64.92,68.31,63.79,69.13,63.36z"/>
	<path class="st19" d="M21.94,64.31c0.83,1.3,1.13,2.84,1.6,4.28c1.1,3.37,2.25,6.77,4.24,9.74c1.73,2.81,4.16,5.07,6.25,7.59
		c2.59,2.96,4.3,6.6,5.36,10.36c0.6,2.11,1.95,3.88,3.1,5.72c1.2,1.92,2.81,3.67,3.3,5.95c-0.19-0.08-0.57-0.23-0.76-0.31
		c-1.76-3.95-5.31-6.91-6.54-11.12c-0.93-3.26-2.44-6.37-4.5-9.06c-2.56-3.18-5.51-6.1-7.45-9.74c-2.01-3.49-3.03-7.42-4.21-11.24
		C22.12,65.78,22.01,65.04,21.94,64.31z"/>
	<path class="st20" d="M60.77,65.32c1.66-0.01,3.32,0.15,4.98,0.26c-0.11,0.2-0.32,0.6-0.42,0.8c-1.6,0.06-3.2,0.04-4.8-0.07
		C60.48,65.96,60.16,65.35,60.77,65.32z"/>
	<path class="st5" d="M60.53,66.32c1.6,0.1,3.19,0.13,4.8,0.07c-0.04,0.28-0.07,0.56-0.09,0.83c-0.07-0.14-0.23-0.4-0.3-0.53
		c-1.36,0.17-2.63,0.76-3.91,1.23C60.88,67.37,60.72,66.84,60.53,66.32z"/>
	<path class="st21" d="M111.66,71.1c0.23-0.52,0.61-0.95,1-1.37c-0.42,2.38-1.78,4.43-2.81,6.57c-2.08,4.37-4.73,8.49-7.95,12.11
		c-1.49,1.74-3.58,2.75-5.34,4.15c-1.92,1.41-3.34,3.36-4.91,5.11c-0.16-0.31-0.32-0.63-0.48-0.94c1.44-1.51,2.59-3.29,4.23-4.6
		c1.98-1.69,4.46-2.77,6.17-4.78C105.91,82.62,108.95,76.89,111.66,71.1z"/>
	<path class="st22" d="M58.69,76.01l0.37-0.05c-0.89,3.16-2.2,6.19-3.12,9.35c-1.69,5.54-2.14,11.44-1.45,17.18
		c0.23,2.94,1.13,5.78,1.4,8.71c-0.23-0.05-0.69-0.16-0.92-0.21c-0.3-2.26-0.94-4.45-1.33-6.7c-0.54-3.63-0.52-7.31-0.37-10.97
		c0.09-2.49,0.79-4.88,1.25-7.31c0.09-0.47,0.21-0.94,0.38-1.39C56.22,81.78,56.87,78.62,58.69,76.01z"/>
	<path class="st22" d="M75.62,80.13c0.33-0.31,0.64-1.18,1.22-0.76c-1.17,2.61-2.8,5-3.73,7.72c-1.09,3.18-2.39,6.29-3.2,9.55
		c-1.4,4.83-1.79,9.91-1.6,14.92c-0.2,0.03-0.6,0.09-0.79,0.12c-0.64-6.47,0.37-13.04,2.59-19.14
		C71.64,88.29,73.29,84.03,75.62,80.13z"/>
	<path class="st23" d="M98.29,98.9c0.8-0.41,1.57-0.91,2.23-1.54c0.06,0.59,0.14,1.19,0.22,1.78c-1.4,0.54-2.78,1.14-4.24,1.53
		C97.06,100.05,97.65,99.45,98.29,98.9z"/>
	<path class="st24" d="M83.17,104.79c1.57-1.23,2.87-2.76,4.41-4.04c0.01,0.25,0.04,0.75,0.05,1c-1.33,1.29-2.6,2.65-4.02,3.85
		c-1.12,0.94-1.99,2.13-2.6,3.45c-0.61,0.19-1.22,0.38-1.82,0.57l0.02-0.37C80.59,107.82,81.58,106.03,83.17,104.79z"/>
	<path class="st25" d="M114.9,103.26c0.81-0.69,1.46-1.66,2.5-2.02c0.64,0.05,0.7,0.87,0.5,1.33c-0.82,2.17-1.92,4.21-2.71,6.39
		c2.39-0.42,4.72-1.16,6.98-2.05c0.53-0.15,1.32-0.61,1.69,0.07c0.06,0.72-0.5,1.28-0.83,1.87c-2.58,3.97-6.56,6.73-10.48,9.26
		c-4.64,2.53-9.37,5.1-14.55,6.32c-1.69,0.54-3.43,0.93-5.21,1.05c4.59-4.61,10.34-7.9,14.65-12.79c0.39-1.3-0.35-2.66-0.98-3.77
		c0.11,1.12,0.46,2.2,0.55,3.32c-1.17,1.3-2.79,2.09-4.25,3.02c-4.02,2.49-8.39,4.33-12.59,6.46c-2.33,1.18-4.98,1.46-7.47,2.13
		c-4.08,0.5-8.09,1.42-12.19,1.8c-6.68,0.83-13.43,0.19-20.05-0.79c-3.85-0.75-7.57-2.02-11.27-3.27c-0.1,0.15-0.3,0.46-0.4,0.62
		c0.01-0.19,0.02-0.56,0.03-0.75c-4.95-1.92-9.55-4.61-13.85-7.71c0.84-1.28,2.03-2.29,2.87-3.57c-1.4,1.03-2.52,2.36-3.63,3.68
		c1.85,2.34,4.09,4.35,6.18,6.48c1.93,1.98,4.03,3.79,6.23,5.46c-3.11-0.4-6.17-1.17-9.1-2.28c-6.64-2.98-12.77-7.01-18.43-11.55
		c-0.46-0.41-1.32-1.22-0.34-1.61c3.36,0.96,6.84,1.42,10.33,1.62c-0.63-1.97-1.45-3.88-2.52-5.65c-0.49-1.12-1.35-2.22-1.23-3.49
		c0.17,0,0.52,0,0.69,0c2.46,1.33,4.94,2.63,7.48,3.79c1.38,0.77,2.75,1.58,4.26,2.06c0.48,0.11,1.06,0.48,1.5,0.06
		c1.54-1.21,3.2-2.43,4.15-4.2c0.2-0.11,0.41-0.21,0.63-0.3c0.11-0.95,0.47-1.85,0.85-2.73c0.8,1.94,2.87,2.63,4.59,3.52
		c1.85,0.86,3.66,1.84,5.56,2.6c0.19,0.08,0.57,0.23,0.76,0.31c1.16,0.51,2.36,0.94,3.59,1.28c1.86,0.61,3.71,1.25,5.61,1.76
		c0.23,0.05,0.69,0.16,0.92,0.21c0.87,0.18,1.73,0.36,2.61,0.5c2.39,0.2,4.78,0.22,7.17,0.16c0.61-0.04,1.22-0.1,1.83-0.18
		c0.2-0.03,0.6-0.09,0.79-0.12c2.06-0.41,4.19-0.38,6.22-0.96c1.3-0.37,2.71-0.37,3.96-0.92c0.92-0.48,0.19-1.69,0.12-2.44
		c0.2,0.67,0.43,1.34,0.61,2.02l-0.02,0.37c0.6-0.19,1.21-0.38,1.82-0.57c0.39-0.12,0.78-0.26,1.16-0.42
		c0.56-0.22,1.12-0.47,1.66-0.74c1.94-0.31,3.73-1.12,5.53-1.86c1.46-0.6,2.91-1.25,4.38-1.81c1.06-0.35,2.12-0.73,3.17-1.14
		c1.16-0.44,2.3-0.92,3.44-1.43c0.46,0.06,1.01,0.03,1.32,0.46c1.52,1.65,2.67,3.6,3.81,5.53c0.31,0.36,0.49,1.33,1.14,0.87
		C109.57,107.11,112.42,105.42,114.9,103.26z"/>
	<path class="st2" d="M83.84,107.9c1.33-1.23,2.91-2.11,4.41-3.11c0.37,0.42,0.74,0.83,1.12,1.25
		C87.56,106.78,85.77,107.59,83.84,107.9z"/>
	<path class="st26" d="M106.47,108.9c0.63,1.12,1.37,2.47,0.98,3.77c-4.31,4.9-10.07,8.18-14.65,12.79
		c-0.31,0.2-0.64,0.37-0.98,0.49c-0.79-1.31-1.25-2.78-1.64-4.26c4.21-2.13,8.57-3.97,12.59-6.46c1.46-0.93,3.08-1.72,4.25-3.02
		C106.93,111.1,106.58,110.02,106.47,108.9z"/>
	<path class="st26" d="M24.21,113.85c1.11-1.32,2.24-2.65,3.63-3.68c-0.84,1.28-2.03,2.29-2.87,3.57c4.3,3.1,8.9,5.79,13.85,7.71
		c-0.01,0.19-0.02,0.56-0.03,0.75c-0.29,1.01-0.76,1.95-1.28,2.85c-0.22,0.29-0.45,0.81-0.89,0.74c-2.2-1.67-4.3-3.48-6.23-5.46
		C28.3,118.2,26.06,116.2,24.21,113.85z"/>
</g>
<g>
	<path class="st17" d="M30.37,20.44c-0.27,0-0.61-0.18-0.9-0.27c-0.94-0.39-1.04-1.37-1.14-2.31c0-0.14-0.04-0.69-0.04-0.78V15.6
		l0.04-0.04h1.71l0.06,0.04v1.96c0,0.1,0.04,0.55,0.04,0.65l0.24,0.33c0.16,0.2,0.53,0.25,0.78,0.25h0.1
		c0.57-0.16,0.61-0.84,0.61-1.33c0-0.84-0.16-1.57-0.71-2.16c-1.24-1.33-2.92-3.06-2.92-5.08c0-0.49,0-0.94,0.1-1.43
		c0-0.04,0.04-0.29,0.04-0.33c0.2-0.69,0.67-1.33,1.29-1.63c0.37-0.14,0.71-0.2,1.1-0.2c0.43,0,0.8,0,1.18,0.16
		c0.06,0,0.29,0.14,0.33,0.2c0.12,0.1,0.39,0.39,0.43,0.43c0.53,0.65,0.49,1.82,0.49,2.61v0.63c0,0.04-0.04,0.16-0.04,0.2
		c0,0.06-0.06,0.12-0.06,0.12h-1.53c-0.06,0-0.1-0.16-0.1-0.16c0-0.59,0-1.22-0.04-1.8c-0.1-0.41-0.18-0.59-0.59-0.59
		c-0.82,0-0.74,0.67-0.74,1.35c0,0.75,0.14,1.27,0.67,1.88c1,1.06,2.23,2.41,2.74,3.9c0.06,0.14,0.22,0.59,0.22,0.59v2.06
		c0,0-0.06,0.14-0.06,0.2c-0.29,1.08-0.92,1.9-2,2.04H30.37z"/>
	<path class="st17" d="M35.49,19.93c0-0.12-0.04-0.49-0.04-0.53v-7.12c0-0.16-0.06-1.02-0.06-1.18V6.8c0.06-0.06,0.16-0.1,0.22-0.1
		h2.74c0.31,0,0.73,0.04,1.02,0.2c0.16,0.06,0.27,0.22,0.37,0.31c0.57,0.63,0.74,1.45,0.74,2.27c0,0.53,0.04,1.1-0.02,1.63
		c0,0.04-0.04,0.61-0.04,0.67c0,0.04-0.06,0.41-0.06,0.47c-0.06,0.37-0.22,0.78-0.31,1.14c0,0-0.12,0.22-0.12,0.25
		c0,0.06-0.04,0.1-0.04,0.1c-0.22,0.22-0.47,0.53-0.72,0.63c-0.22,0.1-0.57,0.16-0.82,0.16c-0.16,0-0.9,0.06-1.04,0.06l-0.06,0.04
		v5.57c0,0-0.1,0.04-0.1,0.1c-0.06,0.06-0.12,0.16-0.22,0.16c-0.35,0.06-0.61,0.06-0.98,0.06h-0.35
		C35.45,20.38,35.49,20.09,35.49,19.93z M37.2,12.78c0,0.2,0.22,0.26,0.37,0.26c0.59,0,0.98-0.22,1.1-0.78
		c0.04-0.43,0.04-1.04,0.04-1.45c0-0.63,0-1.04-0.04-1.73c-0.06-0.51-0.57-0.71-1.04-0.71c-0.12,0-0.31-0.06-0.37,0.16
		c0,0.61-0.06,3.57-0.06,4.2V12.78z"/>
	<path class="st17" d="M44.04,20.4c0,0.1-0.43,0.04-0.41,0.06c-0.1,0-1.02-0.06-1.12-0.06c-0.06,0-0.12,0.02-0.2,0.02
		c-0.12,0-0.25-0.04-0.27-0.16C42.04,15.54,42,9.41,42,7.01c-0.04-0.35,0.06-0.41,0.33-0.41c1.45-0.02,3.63,0,4.02,0.26
		c1.02,0.69,1.12,1.96,1.12,3.08c0,0.71-0.04,2.21-0.55,2.82c-0.16,0.2-0.67,0.51-0.67,0.63c0,0.31,0.12,0.16,0.37,0.31
		c0.29,0.16,0.65,0.45,0.74,1.12c0,0.04,0.1,1.39,0.1,1.43c0,1.43,0,2.76,0.16,3.43c0.04,0.22,0.16,0.43,0.16,0.67
		c-0.02,0.18-0.26,0.12-0.37,0.12h-1.69c-0.22-0.55-0.2-1.27-0.2-1.84c0-1.45-0.1-3.23-0.1-3.61c0-0.88-0.98-0.96-1.23-0.96
		c-0.16,0-0.22,0.06-0.22,0.2c0,0.06,0.06,0.31,0.06,0.35V20.4z M44.35,12.72c0.47,0,0.92-0.16,1.08-0.67c0-1,0.04-1.49,0.04-2.98
		c-0.14-0.57-0.65-0.73-1.23-0.73c-0.27,0-0.2,0.73-0.2,0.84c0,0.49,0.06,2.92,0.06,3.43C44.14,12.72,44.24,12.72,44.35,12.72z"/>
	<path class="st17" d="M49.42,19.89v-2.31c0-3.59,0.06-7,0.06-10.58c0-0.06,0.1-0.22,0.16-0.22l1.57,0.06c0.1,0,0.16,0.1,0.22,0.2
		v4.92c0,1.72-0.12,3.47-0.12,5.21c0,1-0.04,3.31-0.04,3.31l-0.12,0.1h-1.57l-0.1-0.1L49.42,19.89z"/>
	<path class="st17" d="M53.24,19.34c0.12-4.06,0.12-8.19,0.18-12.25c0-0.12,0.04-0.43,0.22-0.43c0.59,0,1,0.04,1.59,0.04
		c0.06,0,0.33,1.08,0.37,1.2l0.49,2.02c0.37,1.51,0.8,3.08,1.23,4.57c0.06,0.1,0.16,0.53,0.16,0.63c0,0.06,0.06,0.27,0.06,0.33
		c0,0.1,0.06,0.22,0.16,0.22c0.06,0,0.12,0,0.12-0.06v-1.45c0-0.22,0.06-2.14,0.06-2.35V6.88l0.1-0.12h1.49
		c0.16,0,0.22,0.12,0.27,0.22v0.49c0,1.18-0.06,2.29-0.06,3.47c-0.06,2.84-0.16,9.45-0.16,9.45l-0.1,0.1h-2.25
		c0,0-0.12-0.1-0.16-0.16c-0.06-0.06-0.12-0.22-0.12-0.27c-0.27-1.14-0.53-2.23-0.86-3.31l-0.04-0.12
		c-0.12-0.22-0.61-2.53-0.76-2.53h-0.06l-0.04,0.06c-0.06,1.94-0.06,3.92-0.06,5.84c0,0.18-0.22,0.39-0.37,0.39h-1.33l-0.06-0.06
		l-0.06-0.16V19.34z"/>
	<path class="st17" d="M63.16,20.54c-0.04,0-0.14-0.14-0.14-0.2c0-3.8,0.14-7.66,0.14-11.47c0-0.22,0.02-0.22-0.1-0.41h-1.53
		c-0.1,0-0.2-0.2-0.2-0.24V6.9c0-0.06,0.04-0.1,0.1-0.16c2.08,0,4.37,0,5.14,0.1l0.06,0.06c-0.02,0.71,0.06,1.23-0.16,1.69
		c-0.59,0-0.98-0.06-1.43-0.06c-0.1,0-0.1,0.1-0.16,0.2c0,0.25,0.06,5.35,0.06,6c0,2.47-0.1,5.14-0.1,5.68l-0.16,0.14H63.16z"/>
</g>
</svg>
